<?xml version="1.0" standalone="no"?>
<!DOCTYPE svg PUBLIC "-//W3C//DTD SVG 1.1//EN" "http://www.w3.org/Graphics/SVG/1.1/DTD/svg11.dtd" >
<svg xmlns="http://www.w3.org/2000/svg">
<metadata></metadata>
<defs>
<font id="ts-icons-allregular" horiz-adv-x="1024" >
<font-face units-per-em="1024" ascent="960" descent="-64" />
<missing-glyph horiz-adv-x="500" />
<glyph unicode="&#xa0;" horiz-adv-x="512" d="M0 0v0v0v0z" />
<glyph unicode="&#x2000;" horiz-adv-x="480" />
<glyph unicode="&#x2001;" horiz-adv-x="960" />
<glyph unicode="&#x2002;" horiz-adv-x="480" />
<glyph unicode="&#x2003;" horiz-adv-x="960" />
<glyph unicode="&#x2004;" horiz-adv-x="320" />
<glyph unicode="&#x2005;" horiz-adv-x="240" />
<glyph unicode="&#x2006;" horiz-adv-x="160" />
<glyph unicode="&#x2007;" horiz-adv-x="160" />
<glyph unicode="&#x2008;" horiz-adv-x="120" />
<glyph unicode="&#x2009;" horiz-adv-x="192" />
<glyph unicode="&#x200a;" horiz-adv-x="53" />
<glyph unicode="&#x202f;" horiz-adv-x="192" />
<glyph unicode="&#x205f;" horiz-adv-x="240" />
<glyph unicode="&#x25fc;" horiz-adv-x="500" d="M0 0v0v0v0v0z" />
<glyph unicode="&#xe001;" horiz-adv-x="1410" d="M3 234l41 -34t111.5 -56t164 -9.5t197.5 106.5q-57 4 -77 23.5t-18.5 41.5t16.5 40.5t27 19.5q-48 0 -79.5 15t-50 33t-25.5 32.5l-7 14.5l7 6.5t19 14.5t28.5 14t34.5 5q-50 10 -79.5 34t-45 49.5t-20.5 45l-5 19.5l7 2.5t18 5.5t25.5 5t28.5 0q-46 27 -69.5 58.5 t-33 59t-10 45.5l-0.5 18l61.5 -23t142 -59t158 -81t109.5 -88q47 129 87 201.5t69.5 107t47 41t19.5 5.5q2 -2 0 -8t-5.5 -13t-7 -12.5l-3.5 -5.5l12.5 10.5t29.5 21.5t34.5 17.5t28.5 -1.5q6 -5 -0.5 -13t-16 -15.5t-19 -13.5l-9.5 -6l14.5 7.5t33 13.5t37 6t26.5 -14 q5 -9 -12 -19t-39.5 -19t-42 -14.5l-19.5 -5.5l36.5 -2.5t85.5 -27.5t98.5 -83t74.5 -169q44 -5 75 -2.5t51 7t29.5 9.5l9.5 5l-4.5 -13t-19.5 -29.5t-43.5 -32.5t-78.5 -23q22 -10 48.5 -13.5t49.5 -4.5t38.5 0.5l15.5 1.5l-6.5 -9t-25 -21t-50.5 -23.5t-84 -15.5 q-38 -183 -188.5 -306t-342 -160.5t-388 25.5t-325.5 252q1 1 1.5 2l1 2t0.5 1.5v0.5v0z" />
<glyph unicode="&#xe002;" horiz-adv-x="458" d="M305 -64h-204v512h-102v177h102v105q0 54 11.5 97t37.5 72.5t68.5 45t103.5 15.5h136v-176h-85q-24 0 -37.5 -5t-20 -13.5t-8.5 -22t-2 -30.5v-88h154l-18 -177h-136v-512v0z" />
<glyph unicode="&#xe005;" horiz-adv-x="1160" d="M1147 818q8 11 11 23.5t1.5 24.5t-8 23t-17.5 19l-51 38q-10 8 -22.5 11t-24.5 1t-23 -8t-19 -17l-562 -753l-292 217q-10 8 -22.5 11t-24.5 1.5t-23 -8t-19 -17.5l-38 -51q-8 -10 -11 -22.5t-1.5 -24.5t8 -23t17.5 -19l394 -294q10 -8 22.5 -11t24.5 -1t23 8t19 17 l638 855v0z" />
<glyph unicode="&#xe016;" horiz-adv-x="1100" d="M158 959q-33 0 -61.5 -12.5t-50.5 -34t-34 -50.5t-13 -62l1 -461q-1 -33 12 -62t34 -50.5t50.5 -34t60.5 -12.5h73q10 0 20 -4t16.5 -11t11.5 -17t4 -21l1 -190l249 229q4 4 8 6.5t9 4t9 2.5t10 1h373q33 0 61.5 12.5t50.5 34t34 50.5t13 62l-1 461q1 33 -12 62t-34 50.5 t-50.5 34t-60.5 12.5h-785h1z" />
<glyph unicode="&#xe02c;" horiz-adv-x="982" d="M906 900q-14 12 -31.5 21.5t-37.5 16.5t-42.5 12t-47.5 7q-54 6 -115.5 0.5t-125.5 -20.5t-127 -38.5t-121 -55.5q-19 -11 -37.5 -22.5t-35.5 -23.5t-33.5 -25.5t-30.5 -27.5q8 -2 17 -4.5t17.5 -4.5t17.5 -4.5t18 -4.5q114 -21 219 -22t196 19.5t167 64t133 112.5v0z M722 549q-70 26 -154.5 46.5t-171.5 37.5t-170.5 32t-151.5 30q-11 -14 -21 -28.5t-18 -30t-14.5 -31t-10.5 -31.5q-4 -11 -6 -22t-3.5 -22.5t-1.5 -23v-23.5q1 -9 3 -20t5.5 -23.5t8 -26.5t10.5 -29q31 -48 108.5 -52t177 23.5t208 79t202.5 114.5v0zM978 737 q-8 -19 -21 -39.5t-29.5 -42t-36.5 -43.5t-43 -45q18 -8 34.5 -17.5t30.5 -20.5t25.5 -23t20.5 -26q3 14 6 27.5t5.5 27.5t4.5 27.5t4 26.5q2 19 3 38.5t1 38t-1 36t-4 35.5v0zM409 673q52 -9 102 -17.5t97.5 -18t91.5 -20.5t83 -24q37 29 68.5 58.5t54.5 58.5t36.5 57 t15.5 53q-1 2 -1.5 3.5t-1 3.5t-1.5 3.5t-1 3.5l-4 8t-4 7.5l-4 7t-4 7.5q-1 3 -3 5.5l-4 5l-4 5t-4 4.5q-48 -60 -106 -101.5t-124 -66t-137.5 -34.5t-145.5 -9v0zM235 70l6.5 -6.5t6.5 -7t6.5 -6.5t7.5 -6q16 -15 33.5 -28.5t35.5 -25.5t36.5 -21t36.5 -16q19 -7 37.5 -11 t37 -5t37 1t37.5 8q21 7 42 16.5t41 21.5t39 26.5t38 31.5l8 8t8.5 8t8.5 8l8 8q18 19 34.5 40t32.5 43t30.5 45.5t27.5 48.5q-43 -52 -117.5 -100t-162.5 -77.5t-181.5 -34t-174.5 30.5v0zM793 518q-74 -63 -164 -120.5t-184 -97t-184.5 -55.5t-164.5 4q1 -2 2 -4.5 t2.5 -4.5l3 -4t2.5 -4l1 -1q73 -118 198.5 -141t252 11.5t227 107.5t123.5 148q6 26 0 48.5t-21.5 42.5t-39 37.5t-54.5 32.5v0z" />
<glyph unicode="&#xe600;" d="M956 4q-12 -12 -28 -18.5t-32 -6t-32 6t-28 19.5l-131 130q-27 -17 -55.5 -30.5t-58.5 -22t-60.5 -13.5t-61.5 -4q-41 -1 -81.5 7.5t-79 23.5t-74 39t-66.5 54q-63 63 -94 141.5t-31 161t31 160.5t94 141q31 31 66.5 54.5t74 39t79 23.5t81.5 7q41 1 81.5 -7t79 -23.5 t74.5 -39t67 -54.5q55 -55 85.5 -122t37.5 -139t-10.5 -142.5t-58.5 -134.5l131 -130q13 -13 19 -28.5t6 -32t-6 -32t-19 -28.5v0zM469 812q-32 -1 -62.5 -7t-59.5 -18t-55 -29t-49 -41q-47 -46 -70.5 -105.5t-23.5 -120.5t23.5 -120.5t70.5 -105.5q23 -23 49 -40t55 -29.5 t59.5 -18t62.5 -6.5q32 1 63 6.5t60 18t55 29.5t49 40q46 46 69.5 105.5t23.5 120.5t-23.5 120.5t-69.5 105.5q-23 24 -49 41t-55 29t-60 18t-63 7v0zM297 437l344 1q12 -1 21.5 4t16.5 11.5t11.5 17t4.5 20.5q0 12 -4.5 21t-11.5 17t-16.5 11.5t-21.5 4.5l-344 -1 q-11 1 -20.5 -3.5t-17 -11.5t-11.5 -17t-4 -20q0 -12 4 -21.5t11.5 -17t17 -11.5t20.5 -5v0z" />
<glyph unicode="&#xe601;" d="M956 4q-12 -12 -28 -18.5t-32 -6t-32 6t-28 19.5l-131 130q-27 -17 -55.5 -30.5t-58.5 -22t-60.5 -13.5t-61.5 -4q-41 -1 -81.5 7.5t-79 23.5t-74 39t-66.5 54q-63 63 -94 141.5t-31 161t31 160.5t94 141q31 31 66.5 54.5t74 39t79 23.5t81.5 7q41 1 81.5 -7t79 -23.5 t74.5 -39t67 -54.5q55 -55 85.5 -122t37.5 -139t-10.5 -142.5t-58.5 -134.5l131 -130q13 -13 19 -28.5t6 -32t-6 -32t-19 -28.5v0zM469 812q-32 -1 -62.5 -7t-59.5 -18t-55 -29t-49 -41q-47 -46 -70.5 -105.5t-23.5 -120.5t23.5 -120.5t70.5 -105.5q23 -23 49 -40t55 -29.5 t59.5 -18t62.5 -6.5q32 1 63 6.5t60 18t55 29.5t49 40q46 46 69.5 105.5t23.5 120.5t-23.5 120.5t-69.5 105.5q-23 24 -49 41t-55 29t-60 18t-63 7v0zM641 544l-118 1v118q0 12 -4.5 21t-11.5 17t-17 11.5t-21 4.5q-11 -1 -20.5 -4.5t-17 -11.5t-11.5 -17t-4 -21v-118 l-119 -1q-11 1 -20.5 -3.5t-17 -11.5t-11.5 -17t-4 -20q0 -12 4 -21.5t11.5 -17t17 -11.5t20.5 -5l119 1v-119q0 -11 4 -21t11.5 -16.5t17 -11.5t20.5 -4q11 -1 21 4t17 11.5t11.5 16.5t4.5 21v119l118 -1q12 1 21.5 5t16.5 11.5t11.5 17t4.5 21.5q0 10 -4.5 20t-11.5 17 t-16.5 11.5t-21.5 3.5v0z" />
<glyph unicode="&#xe602;" d="M149 276h725l1 -255q-1 -13 -5.5 -24.5t-14 -20.5t-20.5 -14t-25 -5h-597q-14 0 -25 5t-20.5 14t-14 20.5t-5.5 24.5l1 255v0zM278 61q-1 -3 -2.5 -5.5t-1.5 -4t-1 -3.5t0 -3q-1 -4 1 -7.5t4 -6t6.5 -3.5t7.5 -1h5.5t4.5 1t4 3t4 4l35 58l35 -57q1 -3 3.5 -5t4 -3t4.5 -1 h5q5 0 8.5 1t7 3.5t4.5 6.5t2 9q-1 2 -1 3.5t-1.5 3.5t-2 4t-3.5 4l-41 63l42 62q2 1 2 2.5t1 3t1 3t1 3.5q-1 5 -2 8.5t-4.5 5.5t-6.5 3t-8 1q-3 0 -6 -0.5t-4.5 -1.5t-3.5 -3t-2 -5l-34 -52l-29 52q-2 2 -3 3.5t-3.5 3.5t-5 2.5t-7.5 0.5q-3 0 -7.5 -1.5t-7 -4t-4.5 -6 t-1 -7.5q-1 -2 0 -3.5t1 -3.5t1.5 -3.5t1.5 -2.5l41 -60l-45 -64v0zM441 54q-1 -7 1.5 -11.5t5 -7.5t7.5 -4t10 -1h88q4 0 8.5 1t7 3.5t4.5 5.5t1 8q1 4 -1 7t-4.5 5.5t-7 3.5t-8.5 1h-71l1 131q-1 5 -2 9t-4 6.5t-6.5 4t-9.5 1.5q-3 0 -7.5 -1.5t-7 -4t-4.5 -6.5t-1 -9 l-1 -142h1zM659 145q-6 1 -10.5 2.5t-9 3.5t-7 5.5t-3.5 8.5q1 4 2.5 8t6 7t9.5 4.5t14 1.5q13 0 21.5 -4t12.5 -9.5t8.5 -9.5t11.5 -4q5 0 7.5 1t6 3t4.5 5.5t2 7.5q-1 9 -7 16.5t-17 13.5t-23 9t-26 3q-12 0 -25.5 -3t-23.5 -9.5t-17 -17t-6 -26.5q-1 -7 1 -14.5t6.5 -14 t14 -12.5t22.5 -9l48 -12q5 -2 9 -4t5.5 -4.5t2.5 -5.5t0 -5q1 -5 -1.5 -9.5t-6.5 -8t-10.5 -5.5t-13.5 -2q-17 0 -25 5.5t-13.5 11.5t-9 11.5t-13.5 5.5q-3 0 -6.5 -1.5t-5.5 -4t-3.5 -5.5t-0.5 -7q-1 -7 4 -15.5t14 -15t24 -11t34 -4.5q20 0 33.5 4t23.5 12t14 18.5 t5 23.5q-1 8 -2.5 16t-7.5 15t-14.5 12.5t-24.5 9.5l-34 8v0zM741 677q-13 0 -26 2.5t-24 7t-21.5 11.5t-18.5 16q-10 9 -16 19t-11.5 21.5t-7.5 24t-3 26.5l1 134h-402q-12 0 -24 -5t-20.5 -14t-14 -20.5t-4.5 -24.5l-1 -535h727l-1 337h-132h-1zM695 759q6 -4 10.5 -7.5 t11 -6t12 -3.5t13.5 -1h132l-196 198l-1 -134q1 -7 1.5 -13t3.5 -12t6 -11t8 -10h-1z" />
<glyph unicode="&#xe603;" d="M64 161q-13 0 -25 5t-20.5 13.5t-13.5 20.5t-5 25v597q0 5 0.5 9.5t2 8.5l3 8t4.5 8l390 -391q10 -9 20.5 -16t22 -12t23.5 -7t25 -2q12 0 24 2t23.5 7t22.5 12t20 16l391 391l4 -8t3 -8t1.5 -8.5t0.5 -9.5v-362q-5 2 -10 3t-10.5 2t-11 1h-10.5q-15 0 -29.5 -2.5t-28 -8 t-25.5 -14t-23 -18.5l-207 -207l-1 -2q-5 -6 -9 -12t-8 -13t-6.5 -14t-5.5 -14h-532v0zM491 550q6 0 12 1.5t12 3.5t11 5.5t10 8.5l317 317h-725l317 -317q5 -5 10 -8.5t11 -5.5t12 -3.5t13 -1.5v0zM569 51v2l1 2l10 42h-516q-7 0 -12.5 -2.5t-10 -7t-7 -10.5t-2.5 -12 q0 -7 2.5 -12.5t7 -10t10 -7t12.5 -2.5h504v4v4.5v4.5t1 5v0zM986 244l13 13q12 12 18.5 28t6.5 32t-6.5 32t-18.5 28q-6 7 -13.5 11.5t-15 7.5t-15.5 4.5t-16 1.5q-9 0 -17 -1.5t-15.5 -4.5t-14.5 -7.5t-14 -11.5l-13 -13l121 -120v0zM941 198l-121 121l-141 -141 q-5 -5 -9 -10.5t-7 -11t-5 -12t-3 -12.5l-23 -92q-1 -7 0 -12.5t4.5 -9.5t8 -6t10.5 -2h2h1.5h1.5h1l93 23l12 4t12 4.5t11 6.5t10 9l13 13v0l129 128v0z" />
<glyph unicode="&#xe604;" d="M581 234q0 -14 -5.5 -27t-14.5 -22t-22 -14.5t-27 -5.5t-27 5.5t-22 14.5t-14.5 22t-5.5 27t5.5 27t14.5 22t22 14.5t27 5.5t27 -5.5t22 -14.5t14.5 -22t5.5 -27v0zM512 518q-27 0 -54 -5t-53 -15.5t-49.5 -26t-44.5 -36.5q-8 -8 -11.5 -18t-3.5 -20t3.5 -20t11.5 -18 q8 -7 18 -11t20 -4t20 4t18 11q13 13 27.5 23t30.5 16.5t33 9.5t34 3t34 -3t33 -9.5t30.5 -16.5t27.5 -23q8 -7 18 -11t20 -4t20 4t18 11q8 8 11.5 18t3.5 20t-3.5 20t-11.5 18q-21 21 -44.5 36.5t-49.5 26t-53 15.5t-54 5v0zM864 586q-37 36 -78.5 63.5t-86.5 45.5t-92 27 t-95 9t-95 -9t-92 -27t-86.5 -45.5t-78.5 -63.5q-7 -8 -11 -18t-4 -20t4 -20t11 -18q8 -8 18 -11.5t20 -3.5t20 3.5t18 11.5q28 29 61 50.5t68 35.5t72.5 21.5t74.5 7.5q38 0 75 -7.5t72 -21.5t68 -35.5t61 -50.5q8 -8 18 -11.5t20 -3.5t20 3.5t18 11.5q7 8 11 18t4 20 t-3.5 20t-11.5 18v0z" />
<glyph unicode="&#xe605;" d="M619 794v69q0 7 2.5 12.5t7 10t10.5 7t12 2.5q7 0 13 -2.5t10 -7t6.5 -10t2.5 -12.5v-69q0 -7 -2.5 -12.5t-6.5 -10t-10 -7t-13 -2.5q-6 0 -12 2.5t-10.5 7t-7 10.5t-2.5 12v0zM866 354q-5 5 -11 7.5t-12 2.5t-12 -2.5t-10 -7.5q-5 -4 -7.5 -10t-2.5 -12.5t2.5 -12 t7.5 -10.5l48 -49q5 -4 11 -6.5t12 -2.5t12 2.5t11 6.5q5 5 7 11t2 12t-2 12t-7 11l-49 48v0zM866 692l49 49q5 4 7 10t2 12.5t-2 12t-7 10.5t-11 7t-12 2t-12 -2t-10 -7l-49 -49q-5 -4 -7.5 -10t-2.5 -12t2.5 -12t7.5 -11q4 -5 10 -7t12.5 -2t12 2t10.5 7v0zM992 555h-69 q-7 0 -12.5 -2.5t-10 -7t-7 -10t-2.5 -12.5q0 -6 2.5 -12t7 -10.5t10 -7t12.5 -2.5h69q7 0 12.5 2.5t10 7t7 10.5t2.5 12q0 7 -2.5 12.5t-7 10t-10 7t-12.5 2.5v0zM638 423h3q16 0 31 -2.5t29.5 -7.5t27.5 -12t25 -16q2 2 4.5 4l5 4l5 4t4.5 5q26 25 38.5 56.5t12.5 64.5 t-12.5 65t-38.5 57q-25 25 -57 37.5t-65 12.5t-64.5 -12.5t-57.5 -37.5q-8 -8 -14.5 -16.5t-12 -18t-9.5 -19t-7 -19.5q25 -11 48 -26t42 -34t35 -41t27 -48v0zM437 692q4 -4 10 -6.5t12 -2.5t12 2.5t11 6.5q5 5 7 11t2 12t-2 12t-7 10l-49 49q-4 5 -10 7.5t-12.5 2.5 t-12 -2.5t-10.5 -7.5t-7.5 -10.5t-2.5 -12t2.5 -12t7.5 -10.5l49 -49v0zM376 530q-46 0 -86.5 -17.5t-70.5 -47.5t-47.5 -70.5t-17.5 -86.5q-32 0 -60 -12t-49 -33t-33 -49t-12 -60q0 -30 11 -56.5t30 -47t45 -33.5t55 -15q2 -1 3.5 -1h3h3h3.5h9h25h38.5h49.5h500 q21 1 39.5 9t32 22t21.5 32.5t8 39.5q0 22 -8 40.5t-22.5 33t-33 22.5t-40.5 8h-4t-4 -0.5t-4 -0.5h-3q1 3 1.5 7l1 8l1 8t0.5 9q0 25 -9.5 47t-26 38t-38.5 25.5t-47 9.5q-6 0 -12.5 -0.5t-12 -1.5t-11 -2.5t-11.5 -4.5q-7 39 -27 71.5t-49 56.5t-65 38t-77 14v0z" />
<glyph unicode="&#xe606;" d="M836 124q-67 -67 -151.5 -101t-172.5 -34t-172.5 34t-151.5 101t-101 151.5t-34 172.5t33.5 172.5t101.5 151.5q67 67 151.5 101t172.5 34t172.5 -34t151.5 -101t101 -151.5t34 -172.5t-34 -172.5t-101 -151.5v0zM411 158q8 0 15 3t12 8t8 12t3 14v104q0 8 -3 15t-8 12 t-12 8t-15 3h-43q-8 0 -15 3t-12 8.5t-8 12t-3 14.5v170q0 8 3 15t8 12t12 8t15 3h4h39q8 0 15 3t12 8t8 12t3 15v104q0 8 -3 14.5t-8 12t-12 8.5t-15 3h-19q-48 0 -82.5 -20t-56 -58.5t-32 -94.5t-10.5 -127v-5q0 -72 10.5 -128t32 -94t56 -58t82.5 -20h19v0zM677 475v49 h145q7 0 12.5 2.5t10 7t7 10.5t2.5 12q0 7 -2.5 13t-7 10t-10 6.5t-12.5 2.5h-145v50q0 4 -1 7t-2 5t-3.5 3t-4.5 1q-1 0 -2 -0.5t-2 -0.5t-2 -0.5t-2 -1.5l-133 -82q-3 -3 -5 -6t-2 -6.5t2 -7t5 -5.5l133 -82q1 -1 2 -1.5l2 -1t2 -0.5h2q2 0 4.5 1t3.5 3t2 5t1 7v0z M695 421v-49h-145q-7 0 -12.5 -2.5t-10 -7t-7 -10.5t-2.5 -12q0 -7 2.5 -13t7 -10t10 -6.5t12.5 -2.5h145v-50q0 -4 0.5 -7t2 -4.5t3.5 -3t5 -1.5q1 0 2 0.5t2 0.5t1.5 0.5l1.5 1.5l134 82q3 3 5 6t2 6.5t-2 7t-5 5.5l-134 83q-1 0 -1.5 0.5t-1.5 1t-2 0.5h-2q-3 0 -5 -1 t-3.5 -3t-2 -5t-0.5 -7v0z" />
<glyph unicode="&#xe607;" d="M755 779h-691q-13 0 -25 -5t-20.5 -13.5t-13.5 -20t-5 -25.5v-534q0 -14 5 -25.5t13.5 -20t20.5 -13.5t24 -5h692q13 0 25 5t20 13.5t13.5 20t4.5 25.5l1 534q-1 14 -5.5 25.5t-13.5 20t-20 13.5t-26 5h1zM410 181q-57 0 -105 21t-85 57t-57.5 85t-21.5 104 q1 55 21.5 104t57.5 85t85 57t105 21q54 0 103.5 -21t85 -57t57 -85t20.5 -104q1 -55 -20.5 -104t-57 -85t-85 -57t-103.5 -21v0zM591 469l-264 159q-8 3 -13 3t-9.5 -3t-6.5 -8.5t-3 -13.5l1 -316q-1 -8 2 -13.5t6.5 -8.5t9.5 -3t12 3l266 159q5 4 8.5 9.5t3 11.5t-3 11.5 t-9.5 9.5v0zM993 628l-106 -64l1 -232l104 -64q7 -3 12.5 -3t10 3t6.5 8.5t3 13.5l-1 316q1 8 -2 13.5t-6.5 8.5t-10 3t-11.5 -3v0z" />
<glyph unicode="&#xe608;" d="M778 565q11 0 20.5 -4t17 -11.5t11.5 -17t4 -20.5v-198h104q6 0 11 -1.5t8.5 -4t5 -5.5t1.5 -8v-2.5t-0.5 -3t-1.5 -3t-2 -3.5l-158 -265q-3 -3 -5.5 -5l-5 -4t-5.5 -2.5t-5 -0.5q-3 0 -6 0.5t-5.5 2.5l-5 4t-4.5 5l-159 265q-1 2 -1.5 3.5l-1 3l-1 3t-0.5 2.5q0 5 2 8 t5 5.5t8 4t11 1.5h104v198q0 11 4.5 20.5t11.5 17t17 11.5t21 4v0zM549 240h-422q-13 0 -25 5t-20.5 13.5t-13.5 20.5t-5 25v522q0 13 5 25t13.5 20.5t20.5 13.5t25 5h43v-75q0 -6 2.5 -12t7 -10.5t10 -7t12.5 -2.5q6 0 12 2.5t10.5 7t7 10.5t2.5 12v75h64v-75q0 -6 2.5 -12 t7 -10.5t10 -7t12.5 -2.5q6 0 12 2.5t10.5 7t7 10.5t2.5 12v75h298v-75q0 -6 2.5 -12t7 -10.5t10.5 -7t12 -2.5q7 0 13 2.5t10 7t6.5 10.5t2.5 12v75h64v-75q0 -6 2.5 -12t7 -10.5t10.5 -7t12 -2.5q7 0 13 2.5t10 7t6.5 10.5t2.5 12v75h43q13 0 24.5 -5t20.5 -13.5t14 -20.5 t5 -25v-451q-3 1 -6 1.5l-6 1t-6 0.5h-6h-40v134q0 24 -9.5 45.5t-25 37.5t-37 25t-45.5 9q-25 0 -46 -9t-37 -25t-25.5 -37.5t-9.5 -45.5v-134h-40q-19 0 -35.5 -6.5t-28.5 -17.5t-19 -26t-7 -32q0 -6 1 -12t2.5 -11.5t3.5 -10.5t5 -11h1v-1l6 -10v0zM287 638 q-18 0 -33.5 -7t-27 -18.5t-18.5 -27t-7 -33.5q0 -11 2.5 -21t7.5 -19t12 -17t15 -13q-37 -8 -57.5 -21.5t-31 -28.5t-13 -30.5t-3.5 -27.5q0 -3 1 -5.5t2.5 -5t3.5 -4t5 -2.5q6 -1 16 -3t26.5 -3.5t40.5 -2.5t59 -1q34 0 58 1t40.5 2.5t26.5 3.5t17 3q2 1 4.5 2.5t4 4t2 5 t0.5 5.5q0 12 -3 27.5t-13 30.5t-31 28.5t-58 21.5q9 5 15.5 13t11.5 17t7.5 19t2.5 21q0 18 -6.5 33.5t-18 27t-27.5 18.5t-33 7v0z" />
<glyph unicode="&#xe609;" d="M896 773h-43v-75q0 -6 -2.5 -12t-6.5 -10.5t-10 -7t-13 -2.5q-6 0 -12 2.5t-10.5 7t-7 10.5t-2.5 12v75h-64v-75q0 -6 -2.5 -12t-6.5 -10.5t-10 -7t-13 -2.5q-6 0 -12 2.5t-10.5 7t-7 10.5t-2.5 12v75h-298v-75q0 -6 -2.5 -12t-7 -10.5t-10.5 -7t-12 -2.5q-7 0 -12.5 2.5 t-10 7t-7 10.5t-2.5 12v75h-64v-75q0 -6 -2.5 -12t-7 -10.5t-10.5 -7t-12 -2.5q-7 0 -12.5 2.5t-10 7t-7 10.5t-2.5 12v75h-43q-13 0 -25 -5t-20.5 -13.5t-13.5 -20.5t-5 -25v-522q0 -13 5 -25t13.5 -20.5t20.5 -13.5t25 -5h768q13 0 24.5 5t20.5 13.5t14 20.5t5 25v522 q0 13 -5 25t-14 20.5t-20.5 13.5t-24.5 5v0zM430 240q-7 -1 -17 -3t-26.5 -3.5t-40.5 -2.5t-58 -1q-35 0 -59 1t-40.5 2.5t-26.5 3.5t-16 3q-3 1 -5 2.5t-3.5 4t-2.5 5t-1 5.5q1 12 3.5 27.5t13 30.5t31 28.5t57.5 21.5q-8 5 -15 13t-12 17t-7.5 19t-2.5 21q0 18 7 33.5 t18.5 27t27 18.5t33.5 7q17 0 33 -7t27.5 -18.5t18 -27t6.5 -33.5q0 -11 -2.5 -21t-7.5 -19t-11.5 -17t-15.5 -13q37 -8 58 -21.5t31 -28.5t13 -30.5t3 -27.5q0 -3 -0.5 -5.5t-2 -5t-4 -4t-4.5 -2.5v0zM864 279h-284q-7 0 -13 2.5t-10 7t-6.5 10t-2.5 12.5t2.5 12.5t6.5 10 t10 7t13 2.5h284q7 0 12.5 -2.5t10 -7t7 -10t2.5 -12.5t-2.5 -12.5t-7 -10t-10 -7t-12.5 -2.5v0zM864 407h-284q-7 0 -13 2.5t-10 7t-6.5 10t-2.5 12.5t2.5 12.5t6.5 10t10 7t13 2.5h284q7 0 12.5 -2.5t10 -7t7 -10t2.5 -12.5t-2.5 -12.5t-7 -10t-10 -7t-12.5 -2.5v0z" />
<glyph unicode="&#xe60a;" d="M533 537q-4 6 -9.5 9t-11.5 3t-11.5 -3t-9.5 -9l-159 -265q-3 -6 -3 -12t3 -10t8.5 -6.5t13.5 -2.5h105v-193q0 -11 4 -21t11.5 -17t17 -11.5t20.5 -4.5t21 4.5t17 11.5t11 17t4 21v193h105q8 0 13.5 2.5t8.5 6.5t3 10t-3 12l-159 265v0zM843 902h-662q-24 0 -45.5 -9.5 t-37.5 -25.5t-25 -37.5t-9 -45.5v-224q0 -24 9 -45.5t25 -37.5t37.5 -25t45.5 -9h94q11 0 21 4t17 11.5t11.5 17t4.5 20.5t-4.5 21t-11.5 17t-17 11.5t-21 4.5h-40q-14 0 -25.5 5t-20 13.5t-13.5 20t-5 24.5v118q0 13 5 24.5t13.5 20.5t20 14t25.5 5h554q14 0 25.5 -5 t20 -14t13.5 -20.5t5 -24.5v-118q0 -13 -5 -24.5t-13.5 -20t-20 -13.5t-25.5 -5h-40q-11 0 -21 -4.5t-17 -11.5t-11.5 -17t-4.5 -21t4.5 -20.5t11.5 -17t17 -11.5t21 -4h94q24 0 45.5 9t37.5 25t25 37.5t9 45.5v224q0 24 -9 45.5t-25 37.5t-37.5 25.5t-45.5 9.5v0z" />
<glyph unicode="&#xe60b;" d="M778 179l-63 356q1 0 5 4.5t16.5 16.5t32.5 32.5t52 51.5q13 14 24 28.5t18.5 29t13.5 29t9 27.5l18 67h-1q1 2 0.5 4.5t-0.5 4t-1.5 3.5t-1.5 3q-2 1 -3.5 2t-3.5 1.5t-4 0.5h-5h1l-68 -17q-12 -4 -27 -9.5t-29 -13.5t-29 -18.5t-28 -24.5q-32 -31 -52 -51.5 t-32.5 -32.5t-16.5 -16.5t-5 -4.5l-355 62q-1 0 -7 1t-15 0.5t-18 -2.5t-17 -8q-5 -7 -12.5 -13.5t-12.5 -12.5t-9 -9.5t-3 -3.5q-1 0 -3 -3.5t-3 -9.5t3.5 -13t16.5 -14q15 -6 58 -29t90.5 -47.5t84.5 -43.5t38 -19l-121 -154q1 0 -2.5 -4t-7.5 -8t-11.5 -7t-15.5 -2 l-122 5q-2 -1 -5.5 -1.5t-6 -2t-6 -3.5t-4.5 -5q-7 -6 -9.5 -13.5t-3 -15.5t3 -15.5t8.5 -13.5q2 -1 2.5 -1.5t2 -1.5t2 -2t3.5 -1q-1 0 -0.5 0t0 -0.5t0 -0.5t-0.5 0q1 0 15 -7.5t33 -17.5t35.5 -19.5t22.5 -13.5q3 -5 13 -22t19.5 -35.5t17.5 -33t7 -14.5h1h0.5t0 0t0.5 0 q-1 -2 0.5 -3t2 -2t1.5 -2t1 -2q7 -6 14 -9t15.5 -3t15.5 3t14 9q2 2 4.5 5t3.5 5.5t2 6t1 6.5l-4 121q-2 9 1.5 16t7 11.5t8 7t3.5 2.5l155 121q-1 0 18.5 -37.5t43.5 -84.5t47.5 -91t28.5 -57q8 -13 14.5 -17t13 -3.5t9.5 3t4 2.5q-1 0 3 3.5t9.5 9l12.5 12.5l13 13 q7 7 8.5 16t2.5 18t-0.5 15.5t-0.5 6.5v0z" />
<glyph unicode="&#xe60c;" d="M224 764h576q11 0 20.5 4t17 11t11.5 17t4 21t-4 20.5t-11.5 17t-17 11.5t-20.5 4h-181q0 11 -4.5 21t-11.5 17t-17 11.5t-21 4.5h-106q-11 0 -21 -4.5t-17 -11.5t-11.5 -17t-4.5 -21h-181q-11 0 -20.5 -4t-17 -11.5t-11.5 -17t-4 -20.5t4 -21t11.5 -17t17 -11t20.5 -4v0 zM805 699q-11 1 -21 -2t-18 -9.5t-13 -15.5t-6 -20l-5 -44h-460l-5 44q-1 11 -6 20t-13 15.5t-18 9.5t-21 2t-20.5 -6t-16 -13t-9.5 -18t-2 -21l64 -621q1 -10 5.5 -18.5t11.5 -15t16.5 -10.5t19.5 -4h43v0v0v0v0h405q10 0 19.5 4t16.5 10.5t11.5 15t5.5 18.5l64 621 q1 11 -2 21t-9.5 18t-16 13t-20.5 6v0z" />
<glyph unicode="&#xe60d;" d="M224 764h576q11 0 20.5 4t17 11t11.5 17t4 21t-4 20.5t-11.5 17t-17 11.5t-20.5 4h-181q0 11 -4.5 21t-11.5 17t-17 11.5t-21 4.5h-106q-11 0 -21 -4.5t-17 -11.5t-11.5 -17t-4.5 -21h-181q-11 0 -20.5 -4t-17 -11.5t-11.5 -17t-4 -20.5t4 -21t11.5 -17t17 -11t20.5 -4v0 zM805 699q-11 1 -21 -2t-18 -9.5t-13 -15.5t-6 -20l-59 -573h-352l-59 573q-1 11 -6 20t-13 15.5t-18 9.5t-21 2t-20.5 -6t-16 -13t-9.5 -18t-2 -21l64 -621q1 -10 5.5 -18.5t11.5 -15t16.5 -10.5t19.5 -4h448q10 0 19.5 4t16.5 10.5t11.5 15t5.5 18.5l64 621q1 11 -2 21 t-9.5 18t-16 13t-20.5 6v0z" />
<glyph unicode="&#xe60e;" d="M512 736q29 0 56.5 -5.5t53.5 -16t49.5 -26.5t44.5 -36q42 -42 63 -95.5t21 -108.5t-21 -108.5t-63 -95.5q-21 -20 -44.5 -36t-49.5 -26.5t-53.5 -16t-56.5 -5.5t-56.5 5.5t-53.5 16t-49.5 26.5t-44.5 36q-42 42 -63 95.5t-21 108.5t21 108.5t63 95.5q21 20 44.5 36 t49.5 26.5t53.5 16t56.5 5.5v0zM836 772q-33 34 -71.5 59t-80 42t-85 25.5t-87.5 8.5t-87.5 -8.5t-85 -25.5t-80 -42t-71.5 -59q-68 -67 -101.5 -151.5t-33.5 -172.5t33.5 -172.5t101.5 -151.5q33 -34 71.5 -59t80 -42t85 -25.5t87.5 -8.5t87.5 8.5t85 25.5t80 42t71.5 59 q67 67 101 151.5t34 172.5t-34 172.5t-101 151.5v0zM761 199q-25 -25 -54 -44t-60.5 -32t-65.5 -20t-69 -7t-69 7t-65.5 20t-60.5 32t-54 44q-51 52 -77 116.5t-26 132.5t26 132.5t77 116.5q25 25 54 44t60.5 32t65.5 20t69 7t69 -7t65.5 -20t60.5 -32t54 -44 q51 -52 77 -116.5t26 -132.5t-26 -132.5t-77 -116.5v0zM661 480h-117v117q0 7 -2.5 13t-7 10t-10 6.5t-12.5 2.5t-12.5 -2.5t-10 -6.5t-7 -10t-2.5 -13v-149q0 -7 2.5 -12.5t7 -10t10 -7t12.5 -2.5h149q7 0 13 2.5t10 7t6.5 10t2.5 12.5t-2.5 12.5t-6.5 10t-10 7t-13 2.5v0z " />
<glyph unicode="&#xe60f;" d="M240 667q-11 0 -21 4t-17 11.5t-11.5 17t-4.5 20.5t4.5 21t11.5 17t17 11.5t21 4.5t20.5 -4.5t17 -11.5t11.5 -17t4 -21t-4 -20.5t-11.5 -17t-17 -11.5t-20.5 -4v0zM886 406q-1 1 -2 2.5t-2 2.5t-2 2.5t-3 2.5l-381 381q-9 9 -22.5 17.5t-28 15t-30 10.5t-28.5 4h-209 q-13 1 -24.5 -4t-20 -13.5t-13.5 -20t-4 -24.5v-209q0 -13 4 -28.5t10.5 -30t15 -28t17.5 -22.5l381 -381q1 -2 2.5 -3t2.5 -2t2.5 -2t2.5 -2q16 -12 34.5 -17.5t37.5 -4.5t37 8.5t32 22.5l183 182q14 15 21.5 32.5t8.5 36.5t-4.5 37.5t-17.5 34.5v0z" />
<glyph unicode="&#xe610;" d="M950 373q-11 3 -21 2.5t-20 -6t-16.5 -12.5t-10.5 -19q-5 -18 -14 -37t-19.5 -36t-24 -34t-27.5 -32q-27 -27 -56 -45.5t-61 -32t-65 -19.5t-68 -7q-33 1 -67 7t-65 19.5t-61 32t-55 45.5l73 73q7 7 9 12t1.5 11t-5 9t-10.5 6l-301 74q-6 3 -12.5 0.5t-10 -6t-6 -10 t0.5 -12.5l74 -301q3 -6 6 -10.5t9 -5t11 1.5t12 9l73 73q34 -33 72 -58.5t80 -42t85 -25.5t88 -8q43 -1 87 8t85 25.5t80 42t72 58.5l1 1q18 19 35.5 41t31 44.5t25 47t18.5 48.5q5 12 3.5 22t-6 19.5t-12.5 16t-18 10.5v0zM73 522q11 -3 21 -2.5t20 6t16.5 13t10.5 18.5 q5 18 14 37t19.5 36.5t24 34.5t27.5 31l1 1q25 25 55 44.5t61 32t65 19.5t67 6q35 1 68 -6t65 -19.5t61 -32t56 -44.5l-75 -75q-5 -5 -8 -11t-1.5 -10.5t5 -9t11.5 -5.5l299 -76q8 -1 13.5 0.5t10 6t6 10t0.5 13.5l-76 299q-1 8 -5 11.5t-9 5t-11 -1.5t-11 -8l-75 -75 q-32 35 -71 59.5t-80 42t-85 25.5t-87 9q-45 -1 -88 -9t-85 -25.5t-80 -42t-72 -59.5v1q-20 -20 -36.5 -41.5t-31 -45t-25 -47t-19.5 -49.5q-3 -9 -2.5 -20.5t6 -20t12.5 -16t19 -9.5z" />
<glyph unicode="&#xe611;" d="M836 124q-67 -67 -151.5 -101t-172.5 -34t-172.5 34t-151.5 101t-101 151.5t-34 172.5t33.5 172.5t101.5 151.5q67 67 151.5 101t172.5 34t172.5 -34t151.5 -101t101 -151.5t34 -172.5t-34 -172.5t-101 -151.5v0zM467 474v83h305q11 0 21 4t17 11.5t11.5 17t4.5 20.5 t-4.5 21t-11.5 17t-17 11t-21 4h-305v83q0 6 -1.5 11t-4 8t-6 5t-7.5 2h-2.5t-3 -0.5t-3.5 -1.5t-3 -2l-222 -137q-7 -4 -10 -9.5t-3 -11.5t3 -11.5t10 -9.5l222 -137q1 -1 3 -2t3.5 -1.5t3 -0.5h2.5q4 0 7.5 1.5t6 5t4 8.5t1.5 11v0zM557 422v-83h-305q-11 0 -21 -4 t-17 -11.5t-11.5 -17t-4.5 -20.5t4.5 -21t11.5 -17t17 -11t21 -4h305v-83q0 -6 1.5 -11t4 -8t6 -5t7.5 -2h2.5t3 0.5t3.5 1.5t3 2l222 137q7 4 10 9.5t3 11.5t-3 11.5t-10 9.5l-222 137q-1 1 -3 2t-3.5 1.5t-3 0.5h-2.5q-4 0 -7.5 -1.5t-6 -5t-4 -8.5t-1.5 -11v0z" />
<glyph unicode="&#xe612;" d="M643 356q22 15 40.5 35.5t31 44.5t20.5 51t7 57q1 0 0.5 0t0 0.5t0 0.5t0.5 1q-2 24 -6 46.5t-13 43t-21 39t-29 34.5q-5 5 -11.5 10.5t-13 10.5t-14 9.5t-13.5 8.5q-11 6 -21 10t-21 7.5t-22 6t-23 3.5q-2 0 -5.5 0.5t-6 0.5h-6h-5.5q-6 0 -11 -0.5t-10.5 -1t-10.5 -1 t-11 -1.5q1 0 -0.5 0h-1.5l-1 -0.5t0 -0.5h-1h-0.5t0 0t-0.5 0q-2 0 -5 -1t-5 -1.5t-5.5 -1.5t-5.5 -1q-14 -5 -26 -10.5t-24.5 -13t-23 -16t-21.5 -17.5q-15 -16 -28 -34.5t-21 -39t-13 -43t-4 -46.5q-1 -6 -0.5 -12t0.5 -11.5t1.5 -11.5t1.5 -11q1 0 0.5 -0.5t0 -0.5t0 0 t0.5 0q0 -3 1 -5.5t1.5 -5.5t1.5 -5.5t1 -5.5q1 0 0.5 0t0 0t0 0t0.5 0q3 -14 9.5 -26.5t13 -24.5t15.5 -22.5t18 -20.5q12 -11 24.5 -21t27 -17.5t29 -13.5t31.5 -9q4 3 11 5t13 4t13.5 2.5t13.5 0.5q25 0 46 -9t37.5 -25t25 -37.5t9.5 -45.5q-1 -2 -0.5 -3.5t0 -3t0 -3 t-0.5 -2.5q-1 -22 -11.5 -41.5t-26 -33.5t-36 -22.5t-42.5 -8.5q-13 0 -23.5 2.5t-21 6.5t-19 10t-17.5 13q-31 6 -61.5 17t-57.5 25.5t-52.5 33t-46.5 40.5q-4 3 -6.5 6.5t-6 6.5t-5.5 6.5t-6 6.5q-30 -25 -48 -52.5t-27 -54.5t-12.5 -53t-3.5 -47q-1 -7 1.5 -14.5 t6.5 -13.5t10 -11t12 -6q18 -5 45 -10t72 -9t109.5 -7t157.5 -3q91 0 156.5 3t109.5 7t72 9t44 10q8 1 13 6t10 11t6.5 13.5t2.5 14.5q-3 32 -9.5 73.5t-35 82.5t-84 76.5t-155.5 57.5h1zM512 904q-54 0 -102 -14.5t-90 -41t-74.5 -63t-55.5 -81.5q-13 0 -26.5 -5 t-23.5 -13.5t-18 -20.5t-11 -26q-3 -11 -4.5 -22.5t-3.5 -23t-2.5 -23.5t-1.5 -24q1 -13 1.5 -24.5t2.5 -23.5t3.5 -23t4.5 -22q3 -15 11 -26.5t18 -20.5t23.5 -13.5t26.5 -5.5q21 -39 48.5 -72.5t63.5 -59t77 -42t87 -22.5q2 -6 7.5 -11t11 -9t13 -5.5t13.5 -1.5 q12 0 21.5 4t17 11t11 17t4.5 21q-1 11 -4.5 20.5t-11 17t-17 11.5t-21.5 4q-5 0 -10.5 -1t-10 -3t-9 -5t-7.5 -7q-37 5 -70 18t-62 33t-51.5 46.5t-40.5 57.5q-1 4 -3 7.5t-3 7t-3 7.5t-3 7q-1 1 -1 2t-0.5 1.5t-0.5 1.5t-1 2q0 3 -1.5 6t-2 6t-2 6t-1.5 6q-1 1 -1 2.5 t-0.5 2.5t-0.5 2t-1 2q0 3 -1 6t-1 6t-1 6.5t-1 6.5q-1 1 -0.5 2t-0.5 2t-0.5 2.5t-0.5 2.5q0 4 -0.5 8t-0.5 8.5t-0.5 8.5t0.5 9q-1 4 -0.5 8.5t0.5 8.5t0.5 8t0.5 9q1 1 0.5 2t0.5 2t0.5 2t0.5 3q0 3 1 6t1 6t1 6t1 6q1 1 1 2t0.5 2.5t0.5 2.5t1 2q0 3 1.5 6t2 6.5t2 6.5 t1.5 6q1 0 1 1t0.5 2t0.5 1.5t1 1.5q1 4 3 7.5t3 7t3.5 7.5t2.5 7h1q5 10 11 19.5t12.5 18.5t14 17.5t14.5 16.5q21 20 44 36t50 27t55.5 17t59.5 6q30 0 59 -6t55 -17t50 -27t43 -36q21 -20 36.5 -43.5t27.5 -50t17.5 -55.5t6.5 -59q-1 -7 2 -13t6.5 -10t10 -6.5t12.5 -2.5 q7 0 12.5 2.5t10.5 6.5t7 10t3 13q-1 74 -29 139t-77 114t-114 77t-140 28h1z" />
<glyph unicode="&#xe613;" d="M678 939h-464q-14 0 -25 -5t-20.5 -14t-14 -20.5t-5.5 -24.5l1 -854q-1 -13 4.5 -24.5t14 -20.5t20.5 -14t24 -5h599q12 0 24 5t20.5 14t14 20.5t4.5 24.5l1 720l-198 198v0zM321 96q-1 -7 -3 -12.5t-7 -10t-10 -7t-13 -2.5q-6 0 -12 2.5t-10 7t-7 10t-2 12.5l-1 47 q1 7 3 12.5t7 10t10 7t13 2.5q6 0 12 -2.5t10 -7t7 -10t2 -12.5l1 -47v0zM320 255q1 -7 -2 -12.5t-7 -10t-10 -7t-12 -2.5q-8 0 -13 2.5t-10 7t-7 10t-3 12.5l1 47q-1 7 2 12.5t7 10t10 7t12 2.5q8 0 13 -2.5t10 -7t7 -10t3 -12.5l-1 -47v0zM321 414q-1 -7 -3 -12.5t-7 -10 t-10 -7t-13 -2.5q-6 0 -12 2.5t-10 7t-7 10t-2 12.5l-1 47q1 6 3 12t7 10.5t10 7t13 2.5q6 0 12 -2.5t10 -7t7 -10.5t2 -12l1 -47v0zM456 64h-55q-8 0 -13 2.5t-10 7t-7 10t-3 12.5q1 7 3 12.5t7 10t10 7t13 2.5h55q8 0 13 -2.5t10 -7t7 -10t3 -12.5q-1 -7 -3 -12.5t-7 -10 t-10 -7t-13 -2.5v0zM457 429h-57q-6 0 -12 2.5t-10 7t-7 10t-2 12.5q-1 7 2 12.5t7 10t10 7t12 2.5h57q6 0 12 -2.5t10 -7t7 -10t2 -12.5q1 -7 -2 -12.5t-7 -10t-10 -7t-12 -2.5v0zM624 64h-55q-8 0 -13 2.5t-10 7t-7 10t-3 12.5q1 7 3 12.5t7 10t10 7t13 2.5h55 q8 0 13 -2.5t10 -7t7 -10t3 -12.5q-1 -7 -3 -12.5t-7 -10t-10 -7t-13 -2.5v0zM625 429h-57q-6 0 -12 2.5t-10 7t-7 10t-2 12.5q-1 7 2 12.5t7 10t10 7t12 2.5h57q6 0 12 -2.5t10 -7t7 -10t2 -12.5q1 -7 -2 -12.5t-7 -10t-10 -7t-12 -2.5v0zM768 96q1 -7 -2 -12.5t-7 -10 t-10 -7t-12 -2.5q-8 0 -13 2.5t-10 7t-7 10t-3 12.5l1 47q-1 7 2 12.5t7 10t10 7t12 2.5q8 0 13 -2.5t10 -7t7 -10t3 -12.5l-1 -47v0zM769 255q-1 -7 -3 -12.5t-7 -10t-10 -7t-13 -2.5q-6 0 -12 2.5t-10 7t-7 10t-2 12.5l-1 47q1 7 3 12.5t7 10t10 7t13 2.5q6 0 12 -2.5 t10 -7t7 -10t2 -12.5l1 -47v0zM768 414q1 -7 -2 -12.5t-7 -10t-10 -7t-12 -2.5q-8 0 -13 2.5t-10 7t-7 10t-3 12.5l1 47q-1 6 2 12t7 10.5t10 7t12 2.5q8 0 13 -2.5t10 -7t7 -10.5t3 -12l-1 -47v0z" />
<glyph unicode="&#xe614;" d="M971 117q0 -26 -10.5 -49.5t-27.5 -40.5t-40.5 -27.5t-49.5 -10.5h-662q-26 0 -49.5 10.5t-40.5 27.5t-27.5 40.5t-10.5 49.5v662q0 26 10.5 49.5t27.5 40.5t40.5 27.5t49.5 10.5h662q26 0 49.5 -10.5t40.5 -27.5t27.5 -40.5t10.5 -49.5v-662v0zM761 697 q-52 51 -116.5 77t-132.5 26t-132.5 -26t-116.5 -77q-51 -52 -77 -116.5t-26 -132.5t26 -132.5t77 -116.5q52 -51 116.5 -77t132.5 -26t132.5 26t116.5 77q51 52 77 116.5t26 132.5t-26 132.5t-77 116.5v0zM683 469l-265 159q-6 3 -11.5 3t-10 -3t-7 -8.5t-2.5 -13.5v-316 q0 -8 2.5 -13.5t7 -8.5t10 -3t11.5 3l265 159q6 4 9 9.5t3 11.5t-3 11.5t-9 9.5v0z" />
<glyph unicode="&#xe615;" d="M864 224q0 -26 -10 -49.5t-27.5 -41t-41 -27.5t-49.5 -10h-448q-26 0 -49.5 10t-41 27.5t-27.5 41t-10 49.5v448q0 26 10 49.5t27.5 41t41 27.5t49.5 10h448q26 0 49.5 -10t41 -27.5t27.5 -41t10 -49.5v-448v0z" />
<glyph unicode="&#xe616;" d="M897 885q0 11 -4 21t-11 17t-17 11.5t-21 4.5h-107q-11 0 -20.5 -4.5t-17 -11.5t-11.5 -17t-4 -21v-800h213v800v0zM620 565q0 11 -4 21t-11.5 17t-17 11.5t-20.5 4.5h-107q-11 0 -20.5 -4.5t-17 -11.5t-11.5 -17t-4 -21v-480h213v480v0zM343 245q0 11 -4.5 21t-11.5 17 t-17 11.5t-21 4.5h-106q-11 0 -21 -4.5t-17 -11.5t-11.5 -17t-4.5 -21v-160h214v160v0zM969 21h-914q-7 0 -13 -2.5t-10 -6.5t-6.5 -10t-2.5 -13q0 -6 2.5 -12t7 -10.5t10 -7t12.5 -2.5h914q7 0 12.5 2.5t10 7t7 10.5t2.5 12q0 7 -2.5 13t-7 10t-10 6.5t-12.5 2.5v0z" />
<glyph unicode="&#xe617;" d="M547 759q5 -5 10 -8t11 -6t12 -3.5t12 -1.5l133 1l-197 197v-133q0 -8 1.5 -13.5t4 -12t6 -11t7.5 -10.5v1zM655 42q-12 -1 -23 1.5t-22 6.5t-20.5 11t-17.5 14l-158 159q-17 16 -25.5 38t-8.5 44t8.5 44.5t25.5 38.5q17 18 39 26t44.5 8.5t44 -8.5t38.5 -25l75 -76 l70 71v281l-133 1q-13 -1 -25.5 2t-24 7t-22 11.5t-18.5 15.5q-9 10 -16 19.5t-11.5 21.5t-7.5 24t-3 27v133l-400 1q-13 -1 -25 -5.5t-20.5 -14t-13.5 -20.5t-5 -25v-853q0 -14 5 -25t13.5 -20.5t20.5 -14t25 -5.5l597 1q14 -1 25.5 4.5t20 14t13.5 20.5t5 24v46 q-7 -7 -15.5 -11t-17.5 -7.5t-18.5 -4.5t-18.5 -2v1zM96 601l533 -1q7 1 13 -2t10 -6.5t6.5 -10t2.5 -12.5q0 -7 -2.5 -12.5t-6.5 -10.5t-10 -7t-13 -3l-533 1q-7 -1 -12.5 2t-10 7t-7 10.5t-2.5 11.5q0 8 2.5 13.5t7 10t10 6.5t12.5 3v0zM285 199l-189 1q-7 -1 -12.5 2 t-10 7t-7 10.5t-2.5 11.5q0 8 2.5 13.5t7 10t10 6.5t12.5 3l189 -1q6 1 12 -2t10.5 -6.5t7 -10t2.5 -12.5q0 -7 -2.5 -12.5t-7 -10.5t-10.5 -7t-12 -3v0zM285 369l-189 -1q-7 1 -12.5 3t-10 7t-7 10t-2.5 13q0 6 2.5 12t7 10t10 7t12.5 2l189 1q6 -1 12 -3t10.5 -7t7 -10 t2.5 -13q0 -6 -2.5 -12t-7 -10t-10.5 -7t-12 -2v0zM933 512l-278 -277l-120 119q-8 9 -18 12t-20 3.5t-20 -3.5t-18 -11q-8 -9 -11.5 -18.5t-3.5 -20t3.5 -20t11.5 -18.5l158 -157q4 -4 8.5 -6.5l9 -5t10 -3t10.5 -1.5q5 1 10 1.5t10 3t9.5 5t8.5 6.5l315 315q8 9 12 18.5 t4 20t-4 20t-12 18.5q-7 6 -17 10.5t-20.5 4t-20 -4t-17.5 -11.5v0z" />
<glyph unicode="&#xe618;" d="M234 492q0 -11 -4.5 -21t-11.5 -17t-17 -11.5t-21 -4.5t-20.5 4.5t-17 11.5t-11.5 17t-4 21t4 20.5t11.5 17t17 11.5t20.5 4t21 -4t17 -11.5t11.5 -17t4.5 -20.5v0zM234 630q0 -11 -4.5 -20.5t-11.5 -17t-17 -11.5t-21 -4t-20.5 4t-17 11.5t-11.5 17t-4 20.5t4 21 t11.5 17t17 11.5t20.5 4.5t21 -4.5t17 -11.5t11.5 -17t4.5 -21v0zM234 769q0 -11 -4.5 -20.5t-11.5 -17t-17 -11.5t-21 -4t-20.5 4t-17 11.5t-11.5 17t-4 20.5t4 21t11.5 17t17 11t20.5 4t21 -4t17 -11t11.5 -17t4.5 -21v0zM895 630q0 7 -2.5 13t-7 10t-10 6.5t-12.5 2.5 h-67q7 -6 12 -13.5t9.5 -15.5t7.5 -16.5t4 -18.5h34q7 0 12.5 2.5t10 7t7 10.5t2.5 12v0zM330 737h533q7 0 12.5 2.5t10 7t7 10t2.5 12.5t-2.5 12.5t-7 10t-10 7t-12.5 2.5h-533q-7 0 -13 -2.5t-10 -7t-6.5 -10t-2.5 -12.5t2.5 -12.5t6.5 -10t10 -7t13 -2.5v0zM863 460 q7 0 12.5 2.5t10 6.5t7 10t2.5 13q0 6 -2.5 12t-7 10.5t-10 7t-12.5 2.5h-32v-64h32v0zM330 460h266v64h-266q-7 0 -13 -2.5t-10 -7t-6.5 -10.5t-2.5 -12q0 -7 2.5 -13t6.5 -10t10 -6.5t13 -2.5v0zM330 598h268q2 10 4.5 18.5t7 16.5t10 15.5t11.5 13.5h-301q-7 0 -13 -2.5 t-10 -6.5t-6.5 -10t-2.5 -13q0 -6 2.5 -12t6.5 -10.5t10 -7t13 -2.5v0zM714 633q11 0 20.5 -4.5t17 -11.5t11.5 -17t4 -21v-197h104q6 0 11 -1.5t8.5 -4t5 -6t1.5 -7.5v-2.5t-0.5 -3.5t-1.5 -3.5t-2 -2.5l-158 -265l-5.5 -5.5t-5 -4t-5 -2t-5.5 -0.5t-6 0.5t-5.5 2t-5 4 t-4.5 5.5l-159 265q-1 1 -1.5 2.5t-1 3.5t-1 3.5t-0.5 2.5q0 4 2 7.5t5 6t8 4t11 1.5h104v197q0 11 4.5 21t11.5 17t17 11.5t21 4.5v0z" />
<glyph unicode="&#xe619;" d="M497 236q-2 0 -3.5 0.5t-3.5 0.5t-3.5 0.5t-2.5 1.5q-5 2 -8.5 5t-6 7t-3.5 8.5t-1 8.5v156h-12q-29 0 -55.5 10t-47 27.5t-35 41.5t-19.5 52h-200q-20 0 -37.5 -7.5t-30.5 -20.5t-20.5 -30.5t-7.5 -37.5v-280q0 -20 7.5 -37.5t20.5 -30.5t30.5 -20.5t37.5 -7.5h226 q3 0 6 -0.5t6 -1.5t5.5 -2.5t4.5 -3.5l151 -139v115q0 7 2.5 12.5t7 10t10.5 7t12 2.5h44q20 0 37.5 7.5t30.5 20.5t20.5 30.5t7.5 37.5v202l-149 -136q-2 -2 -4.5 -3.5t-5.5 -2.5t-5.5 -2t-5.5 -1v0zM182 277q-11 0 -21 4.5t-17 11.5t-11.5 17t-4.5 21t4.5 20.5t11.5 17 t17 11.5t21 4t20.5 -4t17 -11.5t11.5 -17t4 -20.5t-4 -21t-11.5 -17t-17 -11.5t-20.5 -4.5v0zM333 277q-11 0 -20.5 4.5t-17 11.5t-11.5 17t-4 21t4 20.5t11.5 17t17 11.5t20.5 4t21 -4t17 -11.5t11.5 -17t4.5 -20.5t-4.5 -21t-11.5 -17t-17 -11.5t-21 -4.5v0zM928 960h-475 q-20 0 -37.5 -7.5t-30.5 -20.5t-20.5 -30.5t-7.5 -37.5v-280q0 -20 7.5 -37.5t20.5 -30.5t30.5 -20.5t37.5 -7.5h44q6 0 12 -2.5t10.5 -6.5t7 -10t2.5 -13v-115l151 139q2 2 4.5 3.5t5.5 2.5t6 1.5t6 0.5h226q20 0 37.5 7.5t30.5 20.5t20.5 30.5t7.5 37.5v280 q0 20 -7.5 37.5t-20.5 30.5t-30.5 20.5t-37.5 7.5v0zM539 683q-11 0 -20.5 4t-17 11t-11.5 17t-4 21t4 20.5t11.5 17t17 11.5t20.5 4t21 -4t17 -11.5t11 -17t4 -20.5t-4 -21t-11 -17t-17 -11t-21 -4v0zM691 683q-11 0 -21 4t-17 11t-11.5 17t-4.5 21t4.5 20.5t11.5 17 t17 11.5t21 4t20.5 -4t17 -11.5t11.5 -17t4 -20.5t-4 -21t-11.5 -17t-17 -11t-20.5 -4v0zM842 683q-11 0 -20.5 4t-17 11t-11.5 17t-4 21t4 20.5t11.5 17t17 11.5t20.5 4t21 -4t17 -11.5t11.5 -17t4.5 -20.5t-4.5 -21t-11.5 -17t-17 -11t-21 -4v0z" />
<glyph unicode="&#xe61a;" d="M789 799q-18 0 -33.5 -6.5t-27 -18.5t-18 -27.5t-6.5 -32.5v-203l-467 283q-12 7 -22.5 7t-19 -5.5t-13 -16.5t-4.5 -27v-608q0 -16 4.5 -27t13 -16.5t19 -5.5t22.5 7l467 283v-203q0 -17 6.5 -32.5t18 -27.5t27 -18.5t33.5 -6.5t33.5 6.5t27 18.5t18 27.5t6.5 32.5v532 q0 17 -6.5 32.5t-18 27.5t-27 18.5t-33.5 6.5v0z" />
<glyph unicode="&#xe61b;" d="M803 794l-467 -283v203q0 17 -6.5 32.5t-18 27.5t-27 18.5t-33.5 6.5t-33.5 -6.5t-27 -18.5t-18 -27.5t-6.5 -32.5v-532q0 -17 6.5 -32.5t18 -27.5t27 -18.5t33.5 -6.5t33.5 6.5t27 18.5t18 27.5t6.5 32.5v203l467 -283q12 -7 23 -7t19 5.5t12.5 16.5t4.5 27v608 q0 16 -4.5 27t-12.5 16.5t-19 5.5t-23 -7v0z" />
<glyph unicode="&#xe61c;" d="M497 494q5 7 10 13.5l10 13t10.5 12t10.5 11.5q8 8 15.5 15t16 13t16.5 11t17 9q9 5 18 8t19 5.5t21 3.5t24 1v0v-104q0 -8 2.5 -14t6.5 -9t9.5 -3t12.5 4l265 159q6 4 9 9.5t3 11t-3 11t-9 10.5l-265 158q-7 4 -12.5 4t-9.5 -3t-6.5 -9t-2.5 -14v-104v0q-16 0 -31 -1.5 t-29 -4.5t-27.5 -7t-26.5 -9q-11 -5 -21.5 -10t-20 -11t-18.5 -13l-18 -14t-16.5 -14.5l-15 -15t-15 -16t-13.5 -16.5q4 -5 7.5 -10.5t7.5 -10.5l8 -10t7 -10q5 -7 9 -13t8.5 -12.5t8.5 -12.5l8 -12v0zM301 403q-3 -5 -6.5 -9.5t-7.5 -8.5t-7.5 -8t-7.5 -8q-7 -8 -15 -15 t-16 -13t-16.5 -11t-17.5 -9q-9 -5 -18 -8t-19 -5.5t-21 -3.5t-23 -1h-41q-12 0 -21.5 -4.5t-16.5 -11.5t-11.5 -17t-4.5 -21t4.5 -20.5t11.5 -17t16.5 -11.5t21.5 -4h41q15 0 30 1.5t29 4.5t27.5 7t26.5 9q11 5 21.5 10t20 11t19 13t17.5 14q7 5 13 10.5t12 11.5t11.5 12 t10.5 12l-4 6t-4.5 6t-4.5 6t-4 5q-6 9 -12 17.5t-11.5 17l-11 17t-11.5 16.5v0zM981 253l-265 159q-7 4 -12.5 4t-9.5 -3t-6.5 -9t-2.5 -14v-104v0q-11 0 -20.5 1t-18.5 2.5t-17.5 4t-16.5 5.5q-7 3 -13.5 6.5t-13 7.5t-12.5 8.5t-12 9.5q-11 9 -21 19.5t-20 22t-20 24.5 t-20 27q-15 21 -30 43.5t-30.5 45.5t-33 45t-37.5 43q-10 10 -21 20t-23 19t-24.5 17t-26.5 14q-14 7 -29 12.5t-31 9t-33 5.5t-35 2h-41q-12 0 -21.5 -4t-16.5 -11.5t-11.5 -17t-4.5 -20.5t4.5 -21t11.5 -17t16.5 -11.5t21.5 -4.5h41q10 0 20 -1t19 -2.5t17 -4t16 -5.5 q7 -3 13.5 -6.5t13 -7.5t12.5 -8.5t12 -9.5q11 -9 21 -19.5t20.5 -22t20 -24.5t19.5 -27q15 -21 30 -43.5t31 -45.5t33.5 -45t37.5 -43q10 -10 20.5 -20t22.5 -19t25 -17t27 -14q14 -7 29 -12.5t31 -9t33 -5.5t35 -2v0v-104q0 -8 2.5 -14t6.5 -9t9.5 -3t12.5 4l265 158 q6 5 9 10.5t3 11t-3 11t-9 9.5v0z" />
<glyph unicode="&#xe61d;" d="M1014 545q-1 5 -3.5 9.5t-6.5 8t-9 5.5t-10 2l-65 4q-3 10 -6.5 19t-7.5 18l-8 18t-9 17l44 50q4 4 6 9t2 10t-1 10t-5 10q-13 19 -28 38t-32.5 36t-36 32.5t-39.5 30.5q-5 3 -10 4t-10 1t-10 -2t-9 -6l-49 -44q-9 5 -18 9l-18 8t-18 7.5t-18 6.5l-4 65q-1 5 -3 10 t-5.5 9t-8 6.5t-9.5 3.5q-12 3 -24 4.5t-24 2.5t-24.5 2t-24.5 1t-24 -1l-24 -2t-24.5 -2.5t-24.5 -4.5q-5 -1 -9.5 -3.5t-8 -6.5t-5.5 -9t-3 -10l-4 -65q-9 -3 -18 -6.5t-18 -7.5l-18 -8t-18 -9l-49 44q-4 4 -9 6t-10 2t-10 -1t-10 -5q-20 -13 -38.5 -28t-35.5 -32.5 t-33 -36t-30 -39.5q-3 -5 -4 -10t-1 -10t2 -10t6 -9l44 -50q-5 -8 -9 -17l-8 -18t-7.5 -18t-6.5 -19l-65 -4q-5 0 -10 -2t-9 -5.5t-6.5 -8t-3.5 -9.5q-3 -12 -4.5 -24t-2.5 -24.5t-2 -24.5t-1 -24t1 -24l2 -24t2.5 -24.5t4.5 -24.5q1 -5 3.5 -9.5t6.5 -8t9 -5.5t10 -3l65 -4 q3 -9 6.5 -18t7.5 -18l8 -18t9 -18l-44 -49q-4 -4 -6 -9t-2 -10t1 -10t4 -10q14 -20 29 -38.5t32.5 -35.5t36 -33t39.5 -30q5 -3 10 -4t10 -1t10 2t9 6l50 44q8 -5 17 -9l18 -8t18 -7.5t18 -6.5l4 -65q1 -5 3 -10t5.5 -9t8 -6.5t9.5 -3.5q12 -3 24 -4.5t24 -2.5t24.5 -2 t24.5 -1t24 0.5t24 2t24.5 3t24.5 4.5q5 1 9.5 3.5t8 6.5t5.5 9t3 10l4 65q9 3 18 6.5t18 7.5l18 8t17 9l50 -44q4 -4 9 -6t10 -2t10 1t10 4q19 14 38 29t36 32t33 36t30 40q3 5 4 10t1 10t-2 10t-6 9l-44 49q5 9 9 18l8 18t7.5 18t6.5 18l65 4q5 1 10 3t9 5.5t6.5 8 t3.5 9.5q3 12 4.5 24t2.5 24t2 24.5t1 24.5t-1 24l-2 24t-2.5 24.5t-4.5 24.5v0zM420 220v0.5t-0.5 0.5h-1h-0.5h-0.5t-0.5 0.5t-0.5 0.5h-0.5q-11 5 -21 10.5t-20 12t-19 14t-18 15.5q-8 9 -15.5 18t-14 19t-12 20t-10.5 21v0.5v0.5l-0.5 0.5l-0.5 0.5v0.5v0.5v0.5t-1 0.5 q-4 11 -7 22t-5.5 22.5t-3.5 23.5t-1 24v0q0 12 1 24t3.5 23.5t5.5 22.5t7 22h1v0.5v1v0.5v0.5t0.5 0.5t0.5 0.5v0.5q5 11 10.5 21t12 19.5t14 19t15.5 17.5v0q9 9 18 16.5t19 14t20 12t21 10.5h0.5h0.5l0.5 0.5l0.5 0.5h0.5h0.5h0.5h0.5q11 5 22 8t22.5 5.5t23.5 3.5t24 1 t24 -1t23.5 -3.5t22.5 -5.5t22 -7v-1h0.5h1h0.5l0.5 -0.5l0.5 -0.5h0.5h0.5q11 -5 21 -10.5t19.5 -12t19 -14t17.5 -16.5v0q9 -8 16.5 -17.5t14 -19t12 -19.5t10.5 -21v-0.5v-0.5l0.5 -0.5l0.5 -0.5v-0.5v-1v-0.5h1q4 -11 7 -22t5.5 -22.5t3.5 -23.5t1 -24t-1 -24 t-3.5 -23.5t-5.5 -22.5t-7 -22q-1 0 -1 -0.5v-0.5v-0.5v-0.5l-0.5 -0.5l-0.5 -0.5v-0.5v-0.5q-5 -11 -10.5 -21t-12 -20t-14 -19t-16.5 -18v0q-8 -8 -17.5 -15.5t-19 -14t-19.5 -12t-21 -10.5h-0.5h-0.5l-0.5 -0.5l-0.5 -0.5h-0.5h-1h-0.5v-1q-11 -4 -22 -7.5t-22.5 -5.5 t-23.5 -3t-24 -1t-24 1t-23.5 3t-22.5 5.5t-22 7.5v0z" />
<glyph unicode="&#xe61e;" d="M512 955q55 -21 106.5 -39t101.5 -32.5t99.5 -25.5t99.5 -19q13 -2 24.5 -8t19.5 -15t13 -20.5t5 -23.5q0 -213 -63 -369.5t-144 -259.5t-157.5 -153t-104.5 -50t-104.5 50t-157.5 153t-144 259.5t-63 369.5q0 12 5 23.5t13 20.5t19.5 15t24.5 8q50 8 99.5 19t99.5 25.5 t101.5 32.5t106.5 39v0zM721 539h-140v139q0 15 -5.5 27.5t-14.5 22t-22 15t-27 5.5t-27 -5.5t-22 -15t-14.5 -22t-5.5 -27.5v-139h-140q-14 0 -27 -5.5t-22 -15t-14.5 -22t-5.5 -27.5q0 -14 5.5 -26.5t14.5 -22t22 -15t27 -5.5h140v-140q0 -14 5.5 -26.5t14.5 -22t22 -15 t27 -5.5t27 5.5t22 15t14.5 22t5.5 26.5v140h140q14 0 26.5 5.5t22 15t15 22t5.5 26.5q0 15 -5.5 27.5t-15 22t-22 15t-26.5 5.5v0z" />
<glyph unicode="&#xe61f;" d="M956 4q-12 -12 -28 -18.5t-32 -6t-32 6t-28 19.5l-131 130q-27 -17 -55.5 -30.5t-58.5 -22t-60.5 -13.5t-61.5 -4q-41 -1 -81.5 7.5t-79 23.5t-74 39t-66.5 54q-63 63 -94 141.5t-31 161t31 160.5t94 141q31 31 66.5 54.5t74 39t79 23.5t81.5 7q41 1 81.5 -7t79 -23.5 t74.5 -39t67 -54.5q55 -55 85.5 -122t37.5 -139t-10.5 -143t-58.5 -134l131 -130q13 -13 19 -28.5t6 -32t-6 -32t-19 -28.5v0zM469 812q-32 -1 -62.5 -7t-59.5 -18t-55 -29t-49 -41q-47 -46 -70.5 -105.5t-23.5 -120.5t23.5 -120.5t70.5 -105.5q23 -23 49 -40t55 -29.5 t59.5 -18t62.5 -6.5q32 1 63 6.5t60 18t55 29.5t49 40q46 46 69.5 105.5t23.5 120.5t-23.5 120.5t-69.5 105.5q-23 24 -49 41t-55 29t-60 18t-63 7v0z" />
<glyph unicode="&#xe620;" d="M160 -11h-43q-13 0 -24.5 5t-20.5 14t-14 20.5t-5 24.5v790q0 13 5 24.5t14 20.5t20.5 14t24.5 5h43v-214q0 -13 5 -24.5t13.5 -20.5t20.5 -14t24 -5h452q12 0 24 5t20.5 14t14 20.5t4.5 24.5l1 214h69l163 -162l-1 -692q1 -13 -4.5 -24.5t-14 -20.5t-20.5 -14t-24 -5 h-748h1zM376 907l-1 -182q1 -3 1.5 -6t2 -6t2.5 -5.5t5 -4.5q1 -2 4 -4t5.5 -3t6 -2t5.5 -1h236q2 0 5.5 1t6 2t5.5 3t5 4q3 2 4 4.5t3 5.5t2 6t1 6l-1 182h-298v0zM159 53h705l-1 304q1 14 -4.5 25.5t-13.5 20t-20.5 13.5t-24.5 5h-577q-12 0 -24 -5t-20.5 -13.5t-14 -20 t-4.5 -25.5l-1 -304v0z" />
<glyph unicode="&#xe621;" d="M903 186q0 -26 -10.5 -49.5t-27.5 -40.5t-40.5 -27.5t-49.5 -9.5l-526 -1q-26 1 -49.5 10.5t-40.5 27.5t-27.5 40.5t-10.5 50.5v523q0 28 10.5 50.5t27.5 40.5t40.5 27.5t49.5 10.5l526 -1q26 1 49.5 -9.5t40.5 -27.5t27.5 -40.5t10.5 -49.5v-525v0zM346 186q11 9 16 22 t5 26t-5 26t-16 23q-10 11 -22.5 15.5t-26 5t-26 -5t-23.5 -14.5q-10 -12 -15 -24t-5 -26t5 -26t15 -23q11 -10 23.5 -15.5t26 -5t26 5t22.5 16.5v0zM297 411q19 1 36.5 -3t33 -10.5t30 -16.5t26.5 -21q12 -13 21.5 -26.5t16.5 -30t10.5 -33.5t3.5 -36v1q0 -13 4 -22 t11.5 -16.5t17 -11.5t20.5 -5q11 1 21 5t17 11.5t11.5 17t4.5 21.5v-1q0 30 -6 57.5t-17 53.5t-26 48t-35 42q-19 19 -41.5 35t-48 26t-53.5 16.5t-57 5.5q-12 1 -21.5 -4t-16.5 -11.5t-11.5 -17t-4.5 -20.5q0 -12 4.5 -21t11.5 -17t16.5 -11.5t20.5 -4.5v0zM297 625 q41 -1 79 -8.5t73.5 -22.5t66.5 -35.5t58 -48.5q26 -26 47.5 -57.5t36 -66t22.5 -73.5t8 -78v-2q0 -10 4.5 -20t11.5 -16.5t17 -11.5t21 -4q11 -1 20.5 4t17 11.5t11.5 17t4 20.5v1q0 50 -10 99.5t-29 93.5t-46 84.5t-61 72.5q-34 35 -73.5 61.5t-84.5 46t-93.5 29 t-100.5 10.5q-11 -1 -20.5 -4.5t-16.5 -11.5t-11.5 -17t-4.5 -21q0 -10 4.5 -20.5t11.5 -17t16.5 -11.5t20.5 -4v0z" />
<glyph unicode="&#xe622;" d="M526 94v2l1 3l22 89q3 11 5.5 19.5t7 17.5t9 16.5t12.5 16.5h-1l208 208q10 10 22.5 18.5t25.5 13.5t28 8.5t29 2.5q6 1 10.5 0t10 -1t10 -1.5t10.5 -1.5l-1 209q1 14 -4.5 25t-14 20.5t-20.5 14t-24 5.5l-385 -1q1 14 -4.5 25t-14 20.5t-20.5 14t-24 5.5l-321 -1 q-12 1 -24.5 -4.5t-20.5 -14t-13.5 -20.5t-4.5 -24l-1 -663q1 -12 5.5 -24t13.5 -20.5t20.5 -14t25.5 -4.5l423 -1q0 6 -1.5 10.5t-1 10.5t0 10.5t1.5 10.5v0zM103 639q1 8 3 13t6.5 10t10 7t13.5 3l703 -1q7 1 12.5 -2t10.5 -7t7 -10t3 -12q-1 -8 -3 -13t-7 -10t-10.5 -7 t-12.5 -3l-703 1q-8 -1 -13 2t-10 7t-7 10t-3 12v0zM860 114l-1 -2l-57 -57q-1 -1 -1 -0.5t-0.5 -0.5t-0.5 -0.5t-1 -1.5l73 1q12 -1 24 4.5t20.5 14t14 20.5t4.5 24l1 73l-77 -76zM943 287l12 12q14 14 19.5 29t6 32t-6 32t-18.5 29q-7 5 -13.5 10.5t-15 8t-16 4.5t-16.5 1 q-7 1 -15.5 -1t-16 -4.5t-15 -8t-12.5 -10.5l-14 -14l121 -120v0zM897 241l-120 122l-142 -143q-4 -4 -8.5 -9.5t-7 -11t-5 -12t-2.5 -11.5l-24 -94q0 -5 1 -11t4.5 -9.5t8 -6.5t11.5 -2q0 -1 1 -0.5t1.5 0.5t1.5 0.5t1 -0.5l93 24q5 0 11.5 2.5t12 5t11.5 7t10 8.5l14 14 l-1 -1l129 129z" />
<glyph unicode="&#xe623;" d="M597 759q5 -5 10 -8t11 -6t12 -3.5t13 -1.5l132 1l-196 197l-1 -133q1 -8 1.5 -13.5t3.5 -12t6 -11t9 -10.5zM717 26l-91 -24l-3 1q-1 -2 -4 -1.5t-4.5 -0.5t-4 -0.5t-3.5 -0.5q-11 1 -20 2.5t-18 6t-16.5 10t-14.5 13.5q-3 4 -7 10.5t-6 12.5t-4 13.5t-2 14.5l-373 1 q-6 -1 -12.5 2t-10 6.5t-6.5 10t-2 12.5q-1 7 2 12.5t6.5 10.5t10 7t12.5 3l384 -1l13 54q2 6 3.5 13.5t5 13.5t6 13t7.5 12l-419 1q-6 -1 -12.5 2t-10 7t-6.5 10.5t-2 11.5q-1 8 2 13.5t6.5 10t10 6.5t12.5 3l479 -1l150 153l1 206l-134 1q-12 -1 -25 2t-24 7t-22 11.5 t-19 15.5q-9 10 -15.5 19.5t-12 21.5t-7.5 24t-3 27l1 133l-401 1q-13 -1 -25 -5.5t-20 -14t-13.5 -20.5t-4.5 -25l-1 -853q1 -14 5.5 -25t13.5 -20.5t20 -14t26 -5.5l596 1q14 -1 25 4.5t20.5 14t14 20.5t5.5 24l-1 31q-5 -6 -12.5 -9t-14.5 -7t-15 -5.5t-15 -4.5zM225 719 q-8 5 -15 13t-11.5 16.5t-7.5 19t-2 20.5q-1 19 6 34t18 27t27.5 18.5t32.5 7.5q19 -1 34 -7.5t27.5 -18.5t18.5 -27t7 -34q-1 -10 -3 -20.5t-7.5 -19t-12 -16.5t-15.5 -13q38 -9 58 -22t31 -28.5t13 -30.5t4 -28q-1 -1 -1.5 -4.5t-2.5 -5.5t-3.5 -4t-5.5 -2 q-5 -2 -15.5 -3.5t-26.5 -3.5t-40.5 -2.5t-58.5 -1.5q-35 1 -58.5 1.5t-40.5 2.5t-26.5 3.5t-17.5 3.5q-1 0 -4 2t-4 4t-2 5.5t0 4.5q-1 13 2.5 28t13 30.5t31 28.5t57.5 22v0zM147 488l254 1q8 -1 13 -3t10 -7t7 -10t3 -13q-1 -6 -3 -12t-7 -10t-10 -7t-13 -2l-254 -1 q-8 1 -13.5 3t-10 7t-6.5 10t-3 13q1 6 3 12t6.5 10t10 7t13.5 2v0zM763 126l1 -1l-14 -13q-4 -5 -10 -8.5t-11.5 -7t-12 -5t-11.5 -3.5l-93 -22q0 -1 -1.5 -1t-1.5 -0.5t-1.5 0t-0.5 -0.5q-7 1 -11.5 3t-8 6.5t-4.5 9.5t-1 12l24 91q0 8 2.5 13.5t5 11.5t7 11t8.5 11l1 -1 l140 142l122 -121l-129 -127v0zM950 311l-14 -12l-120 120l13 14q7 5 13.5 10t15 8t16 5t16.5 1q7 1 15.5 -1t16 -5t15 -8t12.5 -10q14 -14 19.5 -29t6 -32t-6 -32t-18.5 -29v0z" />
<glyph unicode="&#xe624;" d="M962 703h-537l339 60q3 -3 7.5 -6t9 -4.5t9.5 -2.5t10 -1q11 0 20.5 4t17 11t11.5 17t4 21t-4 20.5t-11.5 17t-17 11.5t-20.5 4q-8 0 -15 -2t-13 -6t-11 -9.5t-8 -11.5l-701 -124h-0.5h-0.5h-0.5h-0.5h-0.5t-1.5 -0.5t-1.5 -0.5h-0.5v0v0v0v0q-10 -3 -18.5 -8.5 t-14.5 -13.5t-9.5 -17.5t-3.5 -20.5v-538q0 -13 5 -24.5t13.5 -19.5t19.5 -13t24 -5h900q13 0 24 5t19.5 13t13.5 19.5t5 24.5v538q0 13 -5 24.5t-13.5 19.5t-19.5 13t-24 5v0zM171 212q0 -7 -2.5 -12.5t-7 -10t-10.5 -7t-12 -2.5q-7 0 -13 2.5t-10 7t-6.5 10t-2.5 12.5v320 q0 7 2.5 12.5t6.5 10t10 7t13 2.5q6 0 12 -2.5t10.5 -7t7 -10t2.5 -12.5v-320v0zM299 212q0 -7 -2.5 -12.5t-7 -10t-10.5 -7t-12 -2.5q-7 0 -13 2.5t-10 7t-6.5 10t-2.5 12.5v320q0 7 2.5 12.5t6.5 10t10 7t13 2.5q6 0 12 -2.5t10.5 -7t7 -10t2.5 -12.5v-320v0zM427 212 q0 -7 -2.5 -12.5t-7 -10t-10.5 -7t-12 -2.5q-7 0 -13 2.5t-10 7t-6.5 10t-2.5 12.5v320q0 7 2.5 12.5t6.5 10t10 7t13 2.5q6 0 12 -2.5t10.5 -7t7 -10t2.5 -12.5v-320v0zM757 212q-33 0 -62 12.5t-51 34.5t-34.5 51t-12.5 62t12.5 62t34.5 51t51 34.5t62 12.5t62.5 -12.5 t51 -34.5t34 -51t12.5 -62t-12.5 -62t-34 -51t-51 -34.5t-62.5 -12.5v0z" />
<glyph unicode="&#xe625;" d="M672 800q0 -7 2.5 -12.5t7 -10t10 -7t12.5 -2.5t12.5 2.5t10 7t7 10t2.5 12.5t-2.5 12.5t-7 10t-10 7t-12.5 2.5t-12.5 -2.5t-10 -7t-7 -10t-2.5 -12.5v0zM864 832v-768q0 -26 -10 -49.5t-27.5 -41t-41 -27.5t-49.5 -10h-448q-26 0 -49.5 10t-41 27.5t-27.5 41t-10 49.5 v768q0 26 10 49.5t27.5 41t41 27.5t49.5 10h448q26 0 49.5 -10t41 -27.5t27.5 -41t10 -49.5v0zM736 896h-448q-13 0 -25 -5t-20.5 -13.5t-13.5 -20.5t-5 -25v-64q0 -13 5 -25t13.5 -20.5t20.5 -13.5t25 -5h448q13 0 25 5t20.5 13.5t13.5 20.5t5 25v64q0 13 -5 25t-13.5 20.5 t-20.5 13.5t-25 5v0zM736 640h-448q-13 0 -25 -5t-20.5 -13.5t-13.5 -20.5t-5 -25v-64q0 -13 5 -25t13.5 -20.5t20.5 -13.5t25 -5h448q13 0 25 5t20.5 13.5t13.5 20.5t5 25v64q0 13 -5 25t-13.5 20.5t-20.5 13.5t-25 5v0zM704 576q7 0 12.5 -2.5t10 -7t7 -10t2.5 -12.5 t-2.5 -12.5t-7 -10t-10 -7t-12.5 -2.5t-12.5 2.5t-10 7t-7 10t-2.5 12.5t2.5 12.5t7 10t10 7t12.5 2.5v0zM736 384h-448q-13 0 -25 -5t-20.5 -13.5t-13.5 -20.5t-5 -25v-64q0 -13 5 -25t13.5 -20.5t20.5 -13.5t25 -5h448q13 0 25 5t20.5 13.5t13.5 20.5t5 25v64q0 13 -5 25 t-13.5 20.5t-20.5 13.5t-25 5v0zM672 288q0 -7 2.5 -12.5t7 -10t10 -7t12.5 -2.5t12.5 2.5t10 7t7 10t2.5 12.5t-2.5 12.5t-7 10t-10 7t-12.5 2.5t-12.5 -2.5t-10 -7t-7 -10t-2.5 -12.5v0zM544 800q0 -7 2.5 -12.5t7 -10t10 -7t12.5 -2.5t12.5 2.5t10 7t7 10t2.5 12.5 t-2.5 12.5t-7 10t-10 7t-12.5 2.5t-12.5 -2.5t-10 -7t-7 -10t-2.5 -12.5v0zM544 544q0 -7 2.5 -12.5t7 -10t10 -7t12.5 -2.5t12.5 2.5t10 7t7 10t2.5 12.5t-2.5 12.5t-7 10t-10 7t-12.5 2.5t-12.5 -2.5t-10 -7t-7 -10t-2.5 -12.5v0zM544 288q0 -7 2.5 -12.5t7 -10t10 -7 t12.5 -2.5t12.5 2.5t10 7t7 10t2.5 12.5t-2.5 12.5t-7 10t-10 7t-12.5 2.5t-12.5 -2.5t-10 -7t-7 -10t-2.5 -12.5v0zM288 768h160q7 0 12.5 2.5t10 7t7 10t2.5 12.5t-2.5 12.5t-7 10t-10 7t-12.5 2.5h-160q-7 0 -12.5 -2.5t-10 -7t-7 -10t-2.5 -12.5t2.5 -12.5t7 -10t10 -7 t12.5 -2.5v0zM288 512h160q7 0 12.5 2.5t10 7t7 10t2.5 12.5t-2.5 12.5t-7 10t-10 7t-12.5 2.5h-160q-7 0 -12.5 -2.5t-10 -7t-7 -10t-2.5 -12.5t2.5 -12.5t7 -10t10 -7t12.5 -2.5v0zM288 256h160q7 0 12.5 2.5t10 7t7 10t2.5 12.5t-2.5 12.5t-7 10t-10 7t-12.5 2.5h-160 q-7 0 -12.5 -2.5t-10 -7t-7 -10t-2.5 -12.5t2.5 -12.5t7 -10t10 -7t12.5 -2.5v0z" />
<glyph unicode="&#xe626;" d="M696 734q-5 5 -8 10t-6 11t-3.5 12t-1.5 13l1 133l196 -197l-132 -1q-8 1 -13.5 2t-12 3.5t-11 5.5t-10.5 9zM1003 459l-1 -305q1 -14 -4.5 -25.5t-14 -20.5t-20.5 -13.5t-24 -5.5l-65 1l1 -43q-1 -12 -5.5 -24.5t-14 -20.5t-20.5 -13.5t-25 -4.5l-597 -1q-14 1 -25 5.5 t-20.5 13.5t-14 20.5t-5.5 25.5l1 41l-65 1q-12 -1 -24 4.5t-20.5 13.5t-14 20.5t-4.5 24.5l-1 307q1 12 5.5 24t14 20.5t20.5 14t25 4.5l63 1l1 325q-1 14 4.5 25.5t14 20.5t20.5 13.5t24 5.5l402 -1l-1 -133q1 -14 3 -26t7.5 -24t11.5 -22t16 -19q8 -8 18.5 -15.5 t21.5 -12t24 -7.5t26 -2l134 -1l-1 -127l65 -1q12 1 24 -4.5t20.5 -14t14 -20.5t4.5 -24zM811 89q-1 8 -3 13.5t-7 10t-10.5 6.5t-12.5 3l-533 -1q-7 1 -12.5 -2t-10.5 -6.5t-7 -10t-3 -12.5q1 -7 3 -12.5t7 -10.5t10.5 -7t12.5 -3l533 1q7 -1 12.5 2t10.5 7t7 10.5t3 11.5 v0zM810 259q1 6 -2 12t-7 10t-10.5 7t-11.5 2l-535 1q-5 -1 -11.5 -3t-10.5 -7t-7 -10t-2 -13q-1 -6 2 -12t7 -10t10.5 -7t11.5 -2l535 -1q5 1 11.5 3t10.5 7t7 10t2 13v0zM939 459l-855 1l1 -307l63 1l1 243l725 1l1 -245l63 1l1 305v0z" />
<glyph unicode="&#xe627;" d="M192 182v348q0 6 2 13t6 13.5t9.5 11.5t11.5 8l262 132q6 3 13.5 4.5t15.5 1.5t15.5 -1.5t13.5 -4.5l262 -132q6 -3 11.5 -8t9.5 -11.5t6 -13.5t2 -13v-348h-123v96q0 3 -0.5 6.5t-1.5 6t-3 5.5t-4 5t-5 4t-5.5 3t-6 1.5t-6.5 0.5h-64q-3 0 -6 -0.5t-6 -1.5t-5.5 -3 t-4.5 -4q-3 -2 -4.5 -5t-2.5 -5.5t-2 -6t-1 -6.5v-96h-389v0zM449 471q-2 3 -4.5 4.5t-5.5 3t-6 2t-6 0.5v0h-96q-3 0 -6.5 -0.5t-6 -2t-5.5 -3t-5 -4.5q-2 -2 -4 -4.5t-3 -5.5t-1.5 -6t-0.5 -6v-43q0 -3 0.5 -6t1.5 -6t3 -5.5t4 -4.5q2 -3 5 -4.5t5.5 -3t6 -2t6.5 -0.5h96 q3 0 6 0.5t6 2t5.5 3t4.5 4.5q3 2 4.5 4.5t2.5 5.5l2 6t1 6v43q0 3 -1 6l-2 6t-2.5 5.5t-4.5 4.5v0zM716 471q-2 3 -5 4.5t-5.5 3t-6 2t-6.5 0.5v0h-96q-3 0 -6 -0.5t-6 -2t-5.5 -3t-4.5 -4.5q-3 -2 -4.5 -4.5t-2.5 -5.5l-2 -6t-1 -6v-43q0 -3 1 -6l2 -6t2.5 -5.5t4.5 -4.5 q2 -3 4.5 -4.5t5.5 -3t6 -2t6 -0.5h96q3 0 6.5 0.5t6 2t5.5 3t5 4.5q2 2 4 4.5t3 5.5t1.5 6t0.5 6v43q0 3 -0.5 6t-1.5 6t-3 5.5t-4 4.5v0z" />
<glyph unicode="&#xe628;" d="M59 11v689q0 7 2 14t6 13.5t9 11.5t11 8l396 132q6 3 13.5 4.5t15.5 1.5t15.5 -1.5t13.5 -4.5l396 -132q6 -3 11 -8t9 -11.5t6 -13.5t2 -14v-689h-389v96q0 4 -0.5 7t-2 6t-3 5.5t-3.5 4.5q-3 2 -5.5 4t-5.5 3t-6 1.5t-6 0.5h-64q-3 0 -6 -0.5t-6 -1.5t-5.5 -3t-5.5 -4 q-2 -2 -3.5 -4.5t-3 -5.5t-2 -6t-0.5 -7v-96h-389v0zM316 301q-2 2 -5 3.5t-5.5 3t-6 2t-6.5 0.5v0h-96q-3 0 -6 -0.5t-6 -2t-5.5 -3t-4.5 -3.5q-3 -2 -4.5 -5t-2.5 -6l-2 -6t-1 -6v-43q0 -3 1 -6l2 -6t2.5 -5.5t4.5 -4.5q2 -2 4.5 -4t5.5 -3l6 -2t6 -1h96q3 0 6.5 1t6 2 t5.5 3t5 4t4 4.5t3 5.5t1.5 6t0.5 6v43q0 3 -0.5 6t-1.5 6t-3 6t-4 5v0zM583 301q-3 2 -5.5 3.5t-5.5 3t-6 2t-6 0.5v0h-96q-3 0 -6 -0.5t-6 -2t-5.5 -3t-5.5 -3.5q-2 -2 -3.5 -5l-3 -6t-2 -6t-0.5 -6v-43q0 -3 0.5 -6t2 -6t3 -5.5t3.5 -4.5q3 -2 5.5 -4t5.5 -3l6 -2t6 -1 h96q3 0 6 1l6 2t5.5 3t5.5 4q2 2 3.5 4.5t3 5.5t2 6t0.5 6v43q0 3 -0.5 6t-2 6l-3 6t-3.5 5v0zM849 301q-2 2 -4.5 3.5t-5.5 3t-6 2t-6 0.5v0h-96q-4 0 -7 -0.5t-5.5 -2t-5.5 -3t-5 -3.5t-4 -5t-3 -6t-1.5 -6t-0.5 -6v-43q0 -3 0.5 -6t1.5 -6t3 -5.5t4 -4.5t5 -4t5.5 -3 t5.5 -2t7 -1h96q3 0 6 1l6 2t5.5 3t4.5 4q3 2 4.5 4.5t2.5 5.5l2 6t1 6v43q0 3 -1 6l-2 6t-2.5 6t-4.5 5v0zM316 471q-2 3 -5 4.5t-5.5 3t-6 2t-6.5 0.5v0h-96q-3 0 -6 -0.5t-6 -2t-5.5 -3t-4.5 -4.5q-3 -2 -4.5 -4.5t-2.5 -5.5l-2 -6t-1 -6v-43q0 -3 1 -6l2 -6t2.5 -5.5 t4.5 -4.5q2 -3 4.5 -4.5t5.5 -3t6 -2t6 -0.5h96q3 0 6.5 0.5t6 2t5.5 3t5 4.5q2 2 4 4.5t3 5.5t1.5 6t0.5 6v43q0 3 -0.5 6t-1.5 6t-3 5.5t-4 4.5v0zM316 642q-2 2 -5 4t-5.5 3t-6 1.5t-6.5 0.5v1h-96q-3 0 -6 -1l-6 -2t-5.5 -3t-4.5 -4q-3 -2 -4.5 -4.5t-2.5 -5.5l-2 -6 t-1 -6v-43q0 -3 1 -6l2 -6t2.5 -6t4.5 -5q2 -2 4.5 -4t5.5 -3t6 -1.5t6 -0.5h96q3 0 6.5 0.5t6 1.5t5.5 3t5 4t4 5t3 5.5t1.5 6t0.5 6.5v42q0 4 -0.5 7t-1.5 6t-3 5.5t-4 4.5v0zM583 642q-3 2 -5.5 4t-5.5 3t-6 1.5t-6 0.5v1h-96q-3 0 -6 -1l-6 -2t-5.5 -3t-5.5 -4 q-2 -2 -3.5 -4.5t-3 -5.5t-2 -6t-0.5 -6v-43q0 -3 0.5 -6t2 -6l3 -6t3.5 -5q3 -2 5.5 -4t5.5 -3t6 -1.5t6 -0.5h96q3 0 6 0.5t6 1.5t5.5 3t5.5 4q2 2 3.5 5t3 5.5t2 6t0.5 6.5v42q0 4 -0.5 7t-2 6t-3 5.5t-3.5 4.5v0zM849 642q-2 2 -4.5 4t-5.5 3t-6 1.5t-6 0.5v1h-96 q-4 0 -7 -1t-5.5 -2t-5.5 -3t-5 -4t-4 -4.5t-3 -5.5t-1.5 -6t-0.5 -6v-43q0 -3 0.5 -6t1.5 -6t3 -6t4 -5t5 -4t5.5 -3t5.5 -1.5t7 -0.5h96q3 0 6 0.5t6 1.5t5.5 3t4.5 4q3 2 4.5 5t2.5 5.5t2 6t1 6.5v42q0 4 -1 7l-2 6t-2.5 5.5t-4.5 4.5v0zM583 471q-3 3 -5.5 4.5t-5.5 3 t-6 2t-6 0.5v0h-96q-3 0 -6 -0.5t-6 -2t-5.5 -3t-5.5 -4.5q-2 -2 -3.5 -4.5t-3 -5.5t-2 -6t-0.5 -6v-43q0 -3 0.5 -6t2 -6t3 -5.5t3.5 -4.5q3 -3 5.5 -4.5t5.5 -3t6 -2t6 -0.5h96q3 0 6 0.5t6 2t5.5 3t5.5 4.5q2 2 3.5 4.5t3 5.5t2 6t0.5 6v43q0 3 -0.5 6t-2 6t-3 5.5 t-3.5 4.5v0zM849 471q-2 3 -4.5 4.5t-5.5 3t-6 2t-6 0.5v0h-96q-3 0 -6.5 -0.5t-6 -2t-5.5 -3t-5 -4.5q-2 -2 -4 -4.5t-3 -5.5t-1.5 -6t-0.5 -6v-43q0 -3 0.5 -6t1.5 -6t3 -5.5t4 -4.5q2 -3 5 -4.5t5.5 -3t6 -2t6.5 -0.5h96q3 0 6 0.5t6 2t5.5 3t4.5 4.5q3 2 4.5 4.5 t2.5 5.5l2 6t1 6v43q0 3 -1 6l-2 6t-2.5 5.5t-4.5 4.5v0z" />
<glyph unicode="&#xe629;" d="M192 181v469q0 14 5 25t13.5 20.5t20.5 14t25 5.5l512 -1q13 1 25 -4.5t20.5 -14t13.5 -20.5t5 -24v-471l-123 1v95q0 4 -0.5 7t-1.5 6t-3 5.5t-4 5.5q-2 1 -5 3.5t-5.5 3t-6 1.5t-6.5 0l-64 1q-3 -1 -6 -1t-6 -1.5t-5.5 -3t-4.5 -4.5q-3 -1 -4.5 -4.5t-2.5 -5.5t-2 -6 t-1 -6v-97l-389 1v0zM449 470q-2 3 -4.5 4t-5.5 3t-6 2t-6 1v-1l-96 1q-3 -1 -6.5 -1t-6 -2t-5.5 -3t-5 -4q-2 -2 -4 -5t-3 -5.5t-1.5 -6t-0.5 -5.5v-44q0 -2 0.5 -5.5t1.5 -6t3 -5.5t4 -4q2 -4 5 -5t5.5 -2.5t6 -2t6.5 -1.5l96 1q3 -1 6 0.5t6 2t5.5 2.5t4.5 4q3 3 4.5 5 t2.5 5.5t2 6t1 6.5v42q0 4 -1 6.5t-2 6t-2.5 5.5l-4.5 6v-1zM716 470q-2 3 -5 4t-5.5 3t-6 2t-6.5 1v-1l-96 1q-3 -1 -6 -1t-6 -2t-5.5 -3t-4.5 -4q-3 -2 -4.5 -5t-2.5 -5.5t-2 -6t-1 -5.5v-44q0 -2 1 -5.5t2 -6t2.5 -5.5t4.5 -4q2 -4 4.5 -5t5.5 -2.5t6 -2t6 -1.5l96 1 q3 -1 6.5 0.5t6 2t5.5 2.5t5 4q2 3 4 5t3 5.5t1.5 6t0.5 6.5v42q0 4 -0.5 6.5t-1.5 6t-3 5.5t-4 6v-1zM449 640q-2 4 -4.5 5t-5.5 2.5t-6 2t-6 1.5v-1l-96 1q-3 -1 -6.5 -1.5t-6 -2t-5.5 -2.5t-5 -5q-2 -1 -4 -4t-3 -5.5t-1.5 -6t-0.5 -5.5v-44q0 -2 0.5 -5.5t1.5 -6t3 -5.5 t4 -5q2 -3 5 -4t5.5 -3t6 -2t6.5 -1l96 1q3 -1 6 0l6 2t5.5 3t4.5 3l4.5 6t2.5 5.5t2 6t1 6.5v42q0 4 -1 6.5t-2 6t-2.5 5.5t-4.5 5v-1zM716 640q-2 4 -5 5t-5.5 2.5t-6 2t-6.5 1.5v-1l-96 1q-3 -1 -6 -1.5t-6 -2t-5.5 -2.5t-4.5 -5q-3 -1 -4.5 -4t-2.5 -5.5t-2 -6t-1 -5.5 v-44q0 -2 1 -5.5t2 -6t2.5 -5.5t4.5 -5q2 -3 4.5 -4t5.5 -3t6 -2t6 -1l96 1q3 -1 6.5 0t6 2t5.5 3t5 3q2 4 4 6t3 5.5t1.5 6t0.5 6.5v42q0 4 -0.5 6.5t-1.5 6t-3 5.5t-4 5v-1z" />
<glyph unicode="&#xe62a;" d="M149 276h725l1 -255q-1 -13 -5.5 -24.5t-14 -20.5t-20.5 -14t-25 -5h-597q-14 0 -25 5t-20.5 14t-14 20.5t-5.5 24.5l1 255v0zM265 48q1 -5 2 -9t4 -6.5t6.5 -4t9.5 -1.5q3 0 7.5 1.5t7 4t4.5 6.5t1 9l1 49h45q16 0 27.5 4.5t20.5 12.5t12.5 18.5t4.5 23.5q-1 15 -5.5 26 t-13.5 18t-20 10.5t-25 3.5h-64q-6 0 -10 -1t-8 -4t-5 -7.5t-2 -11.5l1 -142h-1zM307 182h35q7 0 14 -1.5t11 -4.5t6.5 -8t1.5 -12q1 -6 -1.5 -11t-6 -8.5t-9.5 -5t-11 -1.5h-40l1 52h-1zM445 48q1 -5 2 -9t4 -6.5t6.5 -4t9.5 -1.5q4 0 8 1.5t6.5 4t4.5 6.5t1 9l1 49h45 q17 0 28.5 4.5t20 12.5t12 18.5t4.5 23.5q-1 15 -5.5 26t-13.5 18t-20 10.5t-25 3.5h-64q-6 0 -10 -1t-8 -4t-5 -7.5t-2 -11.5l1 -142h-1zM487 182h36q6 0 13 -1.5t11 -4.5t6.5 -8t1.5 -12q1 -6 -1.5 -11t-6 -8.5t-9.5 -5t-11 -1.5h-40l1 52h-1zM670 48q1 -5 2 -9t4.5 -6.5 t6.5 -4t9 -1.5q4 0 8.5 1.5t6.5 4t4 6.5t1 9l1 131h39q5 0 8.5 1t7 3.5t5 5.5t2.5 7q-1 5 -2.5 8t-5 5.5t-7 3.5t-8.5 1h-120q-6 0 -9.5 -1t-7 -3.5t-4.5 -5.5t-2 -8q1 -4 2 -7t4.5 -5.5t7 -3.5t9.5 -1h38l1 -131h-1zM741 677q-13 0 -26 2.5t-24 7t-21.5 11.5t-18.5 16 q-10 9 -16 19t-11.5 21.5t-7.5 24t-3 26.5l1 134h-402q-12 0 -24 -5t-20.5 -14t-14 -20.5t-4.5 -24.5l-1 -535h727l-1 337h-132h-1zM695 759q6 -4 10.5 -7.5t11 -6t12 -3.5t13.5 -1h132l-196 198l-1 -134q1 -7 1.5 -13t3.5 -12t6 -11t8 -10h-1z" />
<glyph unicode="&#xe62b;" d="M782 488l-503 306q-13 7 -23 7t-18.5 -5.5t-13 -16.5t-5.5 -27l1 -608q-1 -16 4.5 -27t13 -16.5t18.5 -5.5t22 7l505 306q10 8 16.5 18.5t6 21.5t-6 21.5t-17.5 18.5v0z" />
<glyph unicode="&#xe62c;" d="M918 129q9 9 14 21t5 24t-5 24t-14 21l-125 125q-9 9 -21 14t-24 4.5t-24 -4.5t-21 -15l-52 -51q-10 -10 -21.5 -14t-24 -4.5t-24.5 4.5t-21 13l-204 205q-9 8 -13.5 20.5t-4.5 24.5t4.5 24t13.5 20l5 6l48 47q9 10 13.5 21.5t4.5 24t-4.5 24t-13.5 21.5l-125 124 q-10 10 -21.5 14.5t-24 5t-24 -5t-21.5 -13.5l-23 -25q-58 -56 -75 -121.5t3 -137t74.5 -151t140.5 -164.5l6 -7q86 -85 165 -140t151 -74.5t137 -3t122 75.5l24 22v1z" />
<glyph unicode="&#xe62d;" d="M149 276h725l1 -255q-1 -13 -5.5 -24.5t-14 -20.5t-20.5 -14t-25 -5h-597q-14 0 -25 5t-20.5 14t-14 20.5t-5.5 24.5l1 255v0zM263 48q1 -5 2 -9t4 -6.5t6.5 -4t9.5 -1.5q3 0 7.5 1.5t7 4t4 6.5t0.5 9l1 49h46q16 0 27.5 4.5t20 12.5t12.5 18.5t5 23.5q-1 15 -5.5 26 t-13.5 18t-20 10.5t-26 3.5h-63q-6 0 -10.5 -1t-8 -4t-4.5 -7.5t-2 -11.5l1 -142h-1zM305 182h35q7 0 14 -1.5t10.5 -4.5t6.5 -8t2 -12q1 -6 -1.5 -11t-6 -8.5t-9.5 -5t-11 -1.5h-40l1 52h-1zM443 54q1 -7 2 -11.5t5 -7.5t8 -4t10 -1h50q22 0 38 6t27.5 18t17 29t6.5 39 q-1 27 -7.5 45t-19.5 28.5t-28 14.5t-33 4h-51q-6 0 -10 -1t-8 -4t-5 -7.5t-2 -11.5l1 -136h-1zM485 180h36q10 0 19 -4t14 -11.5t8 -18t2 -24.5q1 -11 -1.5 -21.5t-7 -18.5t-13.5 -13t-21 -5h-36l1 116h-1zM638 48q1 -5 2 -9t4.5 -6.5t6.5 -4t9 -1.5q4 0 8.5 1.5t6.5 4 t4 6.5t1 9l1 57h62q6 0 9 0.5t6 2.5t4 5t2 8q-1 5 -2 8t-4 5t-6 2.5t-9 0.5h-62l-1 43h76q4 0 8 1t6.5 3t4.5 5t1 8q1 5 -1 8.5t-4.5 5.5t-6.5 2.5t-8 0.5h-93q-5 0 -10 -1t-7.5 -4t-5 -7.5t-1.5 -11.5l-1 -142v0zM742 677q-15 0 -27 2.5t-24 7t-21.5 11.5t-19.5 16 q-8 9 -15 19t-11.5 21.5t-7.5 24t-2 26.5l-1 134h-400q-14 0 -25 -5t-20.5 -14t-14 -20.5t-5.5 -24.5l1 -535h725l1 337h-134h1zM696 759q4 -4 9.5 -7.5t11 -6t12 -3.5t12.5 -1h134l-198 198l1 -134q-1 -7 0.5 -13t3.5 -12t6 -11t7 -10h1z" />
<glyph unicode="&#xe62e;" d="M413 160q0 -13 -5 -25t-13.5 -20.5t-20 -13.5t-25.5 -5h-125q-13 0 -24.5 5t-20.5 13.5t-14 20.5t-5 25v576q0 13 5 24.5t13.5 20.5t20.5 13.5t24 5.5l126 -1q13 1 25 -4.5t20 -13.5t13.5 -20.5t4.5 -24.5l1 -577v1zM863 736q1 12 -4.5 24t-13.5 20.5t-20.5 13.5t-24.5 5 h-126q-13 0 -25 -5t-20 -13.5t-13.5 -20.5t-4.5 -25l-1 -576q1 -13 5.5 -25t13.5 -20.5t20 -13.5t26 -5h124q14 0 25 5t20.5 13.5t13.5 20.5t6 25l-2 576z" />
<glyph unicode="&#xe62f;" d="M645 225q-1 4 -1.5 8.5t-1 8.5t-1 8.5t-0.5 8.5q0 30 11.5 56t30.5 45t45 30.5t55 11.5h3t2.5 -0.5t2.5 -0.5h2q-12 14 -28 27t-37.5 25t-49 21.5t-62.5 17.5q18 12 32.5 28.5t25 35.5t16 41t5.5 45q0 38 -14.5 71.5t-39 58t-58 39t-71.5 13.5q-38 1 -71.5 -13.5t-58 -39 t-39 -58.5t-14.5 -71q0 -24 5.5 -45.5t16 -41t25 -35.5t32.5 -29q-35 -7 -62.5 -17t-49 -21.5t-37.5 -25t-28 -26.5q1 -1 2 -0.5t2.5 0.5t2.5 0.5t3 -0.5q29 1 55 -11t45 -30.5t30.5 -45t11.5 -55.5q0 -5 -0.5 -9t-1 -8.5t-1 -8.5t-1.5 -9q3 -1 6 -4t6 -5t6 -5.5t6 -4.5 q11 -2 24 -1.5t26.5 -0.5t28 -0.5t30.5 -0.5q16 1 30.5 0.5t28 0.5t26.5 0.5t24 1.5q3 1 6 4.5t6 5.5t6 5t6 4v1zM241 338q16 -1 30 -7t25 -17t17 -25t6 -31q0 -9 -2.5 -19t-7 -17.5t-10.5 -15t-14 -11.5q34 -9 53 -20.5t28 -26t11.5 -28t3.5 -25.5q0 -1 -1 -4t-2 -5t-3 -4 t-5 -2q-5 -2 -14.5 -3.5t-24.5 -3t-37 -2t-53 -1.5q-32 1 -54 1.5t-37 2t-24 3t-15 3.5q-3 0 -4.5 2l-3 4t-2.5 5t-1 4q1 12 3.5 25.5t12 28t28.5 26t52 20.5q-8 4 -14 11.5t-10.5 15t-7 17.5t-2.5 19q0 17 6.5 31t17 25t24.5 17t31 7v0zM783 337q17 1 31 -6t24.5 -17 t17 -25t6.5 -30q0 -11 -2.5 -20t-7 -17.5t-10.5 -15t-14 -12.5q33 -7 52 -19.5t28.5 -26t12 -28t3.5 -24.5q0 -3 -1 -5l-2.5 -5t-3 -4l-4.5 -3q-6 0 -15 -2.5t-24 -3t-37 -2t-54 -0.5q-31 -1 -53 0.5t-37 2t-24.5 3t-14.5 2.5q-3 2 -5 3t-3 4t-2 5t-1 5q1 10 3.5 24.5 t11.5 28t28 26t53 19.5q-8 6 -14 12.5t-10.5 15t-7 17.5t-2.5 20q0 15 6 30t17 25t25 17t30 6v0z" />
<glyph unicode="&#xe630;" d="M173 273q-19 2 -34.5 3.5t-27.5 4t-21 4t-16 4.5q-6 0 -10.5 4.5t-7.5 9t-5 11t-2 10.5q1 27 7 59t28 65t66.5 61t122.5 46q-17 12 -32 28.5t-25 35.5t-15.5 41t-5.5 45q0 39 14 71.5t39 58t58.5 39.5t71.5 15q17 -1 34 -4t32.5 -9.5t29.5 -14.5t26 -20q-40 -9 -74 -32 t-59 -54t-39 -70.5t-14 -81.5q0 -17 2 -32t5.5 -30.5t9.5 -29.5t13 -28q-48 -20 -79.5 -47t-50.5 -55t-28.5 -56.5t-12.5 -50.5v-1zM561 785q-38 1 -71.5 -14t-58.5 -39.5t-39 -58t-14 -70.5q0 -25 5.5 -46t16 -41t25 -35.5t32.5 -29.5q-79 -16 -123.5 -45t-66.5 -60.5 t-28 -65t-7 -58.5q0 -6 2 -11.5t5 -11t7.5 -8.5t10.5 -6q13 -2 35 -6.5t57 -7.5t87 -5.5t125 -1.5l5 -1q-1 4 -1.5 6.5t-1 6t-1 6.5t-0.5 7q0 21 8.5 41t23 34t34 23t41.5 8l20 1v18q0 20 5.5 36t16 30t25 23t31.5 15q-10 4 -21.5 9t-24 9t-26.5 8.5t-30 6.5 q18 14 32.5 29.5t25 35.5t16 41t5.5 46q0 37 -14.5 70.5t-39.5 58t-58 39.5t-71 14v0zM921 242l-73 -1v74q0 10 -4 20.5t-11 17t-17 11.5t-21 4q-11 1 -20.5 -4t-17 -11.5t-11.5 -17t-4 -20.5v-74l-73 1q-11 -1 -21 -4.5t-17 -11.5t-11.5 -17t-4.5 -21q0 -10 4.5 -20.5 t11.5 -17t17 -11t21 -3.5l73 -1v-72q0 -12 4 -21.5t11.5 -17t17 -11.5t20.5 -5q11 1 21 5t17 11.5t11 17t4 21.5v72l73 1q11 -1 21 3.5t17 11t11.5 17t4.5 20.5q0 12 -4.5 21t-11.5 17t-17 11.5t-21 4.5v0z" />
<glyph unicode="&#xe631;" d="M706 250h20v19q0 23 8.5 42t23 33.5t34 23t41.5 8.5q11 0 21 -2t19.5 -6t18 -9.5t16.5 -13.5v460q0 13 -5.5 24.5t-14 20t-20 14t-24.5 5.5h-384q0 13 -5.5 24.5t-14 20t-20 14t-24.5 5.5h-320q-14 0 -25.5 -5.5t-20 -14t-13.5 -20t-5 -24.5v-662q0 -13 5 -24.5 t13.5 -20.5t20 -14t25.5 -5h524q0 22 8.5 41.5t23 34t33.5 23t41 8.5v0zM76 730q0 7 2.5 12.5t6.5 10t10 7t13 2.5h704q6 0 12 -2.5t10.5 -7t7 -10t2.5 -12.5t-2.5 -12.5t-7 -10t-10.5 -7t-12 -2.5h-704q-7 0 -13 2.5t-10 7t-6.5 10t-2.5 12.5v0zM1012 143q0 -11 -4 -20.5 t-11 -17t-17 -11.5t-21 -4h-73v-73q0 -11 -4 -21t-11.5 -17t-17 -11.5t-20.5 -4.5t-21 4.5t-17 11.5t-11.5 17t-4.5 21v73h-73q-11 0 -20.5 4t-16.5 11.5t-11.5 17t-4.5 20.5t4.5 21t11.5 17t16.5 11t20.5 4h73v73q0 12 4.5 21.5t11.5 16.5t17 11.5t21 4.5t20.5 -4.5 t17 -11.5t11.5 -16.5t4 -21.5v-73h73q11 0 21 -4t17 -11t11 -17t4 -21v0z" />
<glyph unicode="&#xe632;" d="M477 239q0 22 8.5 41.5t23 34t34 23t41.5 8.5h19v20q0 18 6 34.5t16.5 30t25 23.5t31.5 14q-10 5 -21.5 10t-24.5 9.5t-27 8t-29 7.5q18 12 32.5 28.5t24.5 35.5t16 41t6 45q0 38 -14.5 71.5t-39.5 58.5t-58.5 39t-70.5 14q-38 0 -71.5 -14t-58.5 -39t-39.5 -58.5 t-14.5 -71.5q0 -23 6 -45t16 -41t24.5 -35.5t32.5 -28.5q-78 -17 -122.5 -45.5t-66.5 -61t-28 -65.5t-7 -58q0 -6 1.5 -11.5t5 -11t8 -9t10.5 -4.5q13 -4 35 -8t57 -7.5t86.5 -5.5t125.5 -2h0.5h1.5h1.5h0.5q0 3 -1 6t-1.5 6.5t-0.5 6.5v6v0zM836 293h-73v73q0 11 -4 20.5 t-11.5 17t-17 11.5t-20.5 4t-21 -4t-17 -11.5t-11 -17t-4 -20.5v-73h-73q-11 0 -21 -4.5t-17 -11.5t-11.5 -17t-4.5 -21t4.5 -20.5t11.5 -17t17 -11.5t21 -4h73v-73q0 -11 4 -20.5t11 -17t17 -11.5t21 -4t20.5 4t17 11.5t11.5 17t4 20.5v73h73q11 0 21 4t17 11.5t11.5 17 t4.5 20.5t-4.5 21t-11.5 17t-17 11.5t-21 4.5v0z" />
<glyph unicode="&#xe633;" d="M896 629h64q13 0 24.5 5t20.5 14t13.5 20.5t5.5 24.5l-1 107q1 13 -4.5 24.5t-13.5 20.5t-20.5 13.5t-24.5 5.5l-65 -1l1 -234v0zM895 351l65 1q12 -1 24 4.5t20.5 13.5t13.5 20.5t5 24.5v108q0 12 -5 24t-13.5 20.5t-20.5 14t-25 4.5l-64 1v-236v0zM788 960l-725 -1 q-13 1 -25 -4.5t-20.5 -13.5t-13.5 -20.5t-5 -24.5v-897q0 -12 5 -24.5t13.5 -20.5t20.5 -13.5t24 -4.5l689 -1q-4 7 -6 13t-4.5 13t-3 13.5t-1.5 14.5l1 19l-21 1q-21 -1 -41 8t-34 23t-23 34t-8 41q-1 23 8 42t23 34t34 22.5t41 8.5l21 -1l-1 21q1 21 8.5 41t22.5 34 t34 23t42 8q1 1 2.5 0t2 -0.5t2 0t1.5 0.5l1 547q-1 14 -5.5 25.5t-13.5 20.5t-20 13.5t-26 5.5h1zM660 403q-11 -2 -27.5 -5.5t-44 -5.5t-67 -4t-96.5 -1q-56 -1 -96 1t-67 4t-44 5.5t-27 5.5q-5 2 -8 4.5t-6 7t-4 8.5t-2 9q2 19 6 44.5t21.5 50t51.5 47t95 34.5 q-14 11 -25 23t-19.5 27.5t-12.5 31.5t-5 35q1 29 12 55t30.5 44.5t44.5 30t56 10.5q28 1 54 -10.5t45 -30t30.5 -44.5t10.5 -55q1 -19 -4 -35t-12.5 -31.5t-19 -27.5t-24.5 -23q59 -12 94 -34.5t51.5 -47t21.5 -50t5 -44.5q1 -5 -1 -9t-4 -8.5t-6 -7t-7 -4.5v0zM969 169 l-72 -1l-1 74q1 10 -4 20t-11.5 17t-17 11.5t-20.5 3.5q-12 1 -21 -3.5t-17 -11.5t-11.5 -17t-4.5 -20l1 -74l-74 1q-10 -1 -20 -4.5t-17 -11.5t-11.5 -17t-3.5 -21q-1 -10 3.5 -20.5t11.5 -17t17 -11.5t20 -4l74 -1l-1 -72q1 -12 4.5 -21t11.5 -17t17 -11.5t21 -4.5 q10 1 20.5 4.5t17 11.5t11.5 17t4 21l1 72l72 1q12 -1 21 4t17 11.5t11.5 17t4.5 20.5q-1 12 -4.5 21t-11.5 17t-17 11.5t-21 4.5v0z" />
<glyph unicode="&#xe634;" d="M903 186q0 -26 -10.5 -49.5t-27.5 -40.5t-40.5 -27.5t-49.5 -9.5l-526 -1q-26 1 -49.5 10.5t-40.5 27.5t-27.5 40.5t-10.5 50.5v523q0 28 10.5 50.5t27.5 40.5t40.5 27.5t49.5 10.5l526 -1q26 1 49.5 -9.5t40.5 -27.5t27.5 -40.5t10.5 -49.5v-525v0zM371 538 q0 -19 4 -35.5t12 -31.5t19.5 -27t25.5 -23q-61 -12 -96.5 -31.5t-54.5 -40.5t-25 -43.5t-7 -41.5q0 -5 1.5 -9t4 -8.5t6 -7t7.5 -4.5q10 -1 28.5 -5t47.5 -6t70.5 -4t97.5 -1q57 -1 98 1t70 4t47.5 6t28.5 5q4 2 7.5 4.5t6.5 7t4 8.5t1 9q-1 19 -7 41.5t-25 43.5 t-54.5 40.5t-96.5 31.5q14 11 25.5 23t19.5 27t12 31.5t4 35.5q0 28 -11 54.5t-30 45t-45 30t-55 10.5q-29 1 -55 -10.5t-45 -30t-30 -45t-11 -54.5v0z" />
<glyph unicode="&#xe635;" d="M830 324q-10 4 -20.5 6.5t-23 4t-24 1t-25.5 -2.5q-27 -5 -51 -17.5t-39.5 -30t-23.5 -39t-3 -42.5q3 -22 17.5 -39.5t35 -28.5t47.5 -14.5t54 1.5q26 4 46 14t36.5 24t25.5 31.5t12 35.5q-1 0 -0.5 2t0 4.5t0.5 4.5t-1 3l1 449l-1 27l1 112q-1 4 -1 7.5t-2 6.5t-3.5 6 t-5.5 5q-2 2 -5.5 3.5t-6.5 2.5t-7 1h-6l-490 -86q-5 -1 -10.5 -4t-8.5 -7.5t-5.5 -9.5t-1.5 -11l-1 -507q-9 5 -20.5 7.5t-22.5 4t-24 1t-24 -2.5q-29 -5 -52 -18t-39.5 -30.5t-23.5 -38.5t-4 -43q5 -21 18.5 -38.5t35 -28.5t47.5 -15t55 1q23 5 44.5 15t36.5 24t25.5 31.5 t11.5 35.5q1 0 0.5 2t0 4.5t0 4.5t0.5 2l-1 450l426 75l-1 -356h1z" />
<glyph unicode="&#xe636;" d="M928 806v-535l-181 109q-5 2 -10.5 5t-11.5 4t-11.5 2t-11.5 0q-17 1 -32 -6t-26 -18.5t-17.5 -28.5t-6.5 -35v-42l-134 1q-24 -1 -45.5 -9.5t-37.5 -25t-25 -37.5t-9 -46l-273 1q-13 -1 -25 4.5t-20.5 14t-13.5 20.5t-5 24v662q0 13 5 25t13.5 20t20.5 13.5t25 4.5 l320 1q13 -1 25 -5.5t20.5 -13.5t13.5 -20t5 -26v1l384 -1q13 1 25 -4.5t20.5 -13.5t13.5 -20t5 -25v0zM128 699l704 1q7 -1 12.5 2t10 6.5t7 10t2.5 12.5q0 7 -2.5 12.5t-7 10.5t-10 7t-12.5 3l-704 -1q-7 1 -12.5 -2t-10 -7t-7 -10.5t-2.5 -11.5q0 -8 2.5 -13.5t7 -10 t10 -6.5t12.5 -3v0zM702 328q-4 -1 -7 -2t-5.5 -5t-4 -8t-1.5 -11v-104l-198 -1q-11 1 -20.5 -3.5t-17 -11.5t-11.5 -17t-4 -20q0 -12 4 -21.5t11.5 -17t17 -11t20.5 -4.5l198 1v-106q0 -5 1.5 -10t4 -8t5.5 -5t7 -1q2 -1 3.5 -0.5t3 0.5t3 1t3.5 1l265 160q6 3 9 9t3 11.5 t-3 11.5t-9 9l-265 160q-2 0 -3.5 1t-3 1t-3 0.5t-3.5 -0.5v1z" />
<glyph unicode="&#xe637;" d="M395 448q0 -11 -4.5 -20.5t-11.5 -17t-17 -11.5t-21 -4t-20.5 4t-17 11.5t-11.5 17t-4 20.5t4 20.5t11.5 17t17 11.5t20.5 4t21 -4t17 -11.5t11.5 -17t4.5 -20.5v0zM512 501q-11 0 -20.5 -4t-17 -11.5t-11.5 -17t-4 -20.5t4 -20.5t11.5 -17t17 -11.5t20.5 -4t20.5 4 t17 11.5t11.5 17t4 20.5t-4 20.5t-11.5 17t-17 11.5t-20.5 4v0zM683 501q-11 0 -21 -4t-17 -11.5t-11.5 -17t-4.5 -20.5t4.5 -20.5t11.5 -17t17 -11.5t21 -4t20.5 4t17 11.5t11.5 17t4 20.5t-4 20.5t-11.5 17t-17 11.5t-20.5 4v0z" />
<glyph unicode="&#xe638;" d="M866 898v-900q0 -13 -5 -24t-13 -19.5t-19.5 -13.5t-24.5 -5h-584q-13 0 -24 5t-19.5 13.5t-13.5 19.5t-5 24v900q0 13 5 24t13 19.5t19.5 13.5t24.5 5h584q13 0 24.5 -5t19.5 -13.5t13 -19.5t5 -24v0zM761 179v666q0 2 -1 3.5t-2 2.5t-2.5 1.5t-3.5 0.5h-480 q-2 0 -3.5 -0.5t-2.5 -1.5t-2 -2.5t-1 -3.5v-666q0 -2 1 -3.5t2 -2.5t2.5 -1.5t3.5 -0.5h480q2 0 3.5 0.5t2.5 1.5t2 2.5t1 3.5v0zM511 107q-11 0 -20.5 -4.5t-17 -11.5t-11.5 -17t-4 -21t4 -20.5t11.5 -17t17 -11.5t20.5 -4t21 4t17 11.5t11 17t4 20.5t-4 21t-11 17 t-17 11.5t-21 4.5v0z" />
<glyph unicode="&#xe639;" d="M245 608h533q12 0 21 4t17 11.5t11.5 17t4.5 20.5q-1 11 -4.5 21t-11.5 17t-17 11.5t-21 4.5h-533q-12 0 -21 -4.5t-17 -11.5t-11.5 -17t-4.5 -21q1 -11 4.5 -20.5t11.5 -17t17 -11.5t21 -4v0zM778 501h-533q-12 0 -21 -4t-17 -11.5t-11.5 -17t-4.5 -20.5 q1 -11 4.5 -20.5t11.5 -17t17 -11.5t21 -4h533q12 0 21 4t17 11.5t11.5 17t4.5 20.5q-1 11 -4.5 20.5t-11.5 17t-17 11.5t-21 4v0zM779 288h-535q-10 0 -20 -4t-17 -11.5t-11.5 -17t-3.5 -20.5q-1 -11 3.5 -21t11.5 -17t17 -11.5t20 -4.5h535q10 0 20 4.5t17 11.5t11.5 17 t3.5 21q1 11 -3.5 20.5t-11.5 17t-17 11.5t-20 4v0z" />
<glyph unicode="&#xe63a;" d="M192 562q0 66 25 124.5t68.5 101.5t102 68.5t124.5 24.5q66 1 124.5 -24.5t102 -68.5t68.5 -101.5t25 -124.5q0 -89 -50 -185.5t-110 -177.5t-110 -133t-50 -53q0 1 -50 53t-110 133t-110 177.5t-50 185.5v0zM512 721q-33 1 -62 -12t-51 -34t-34.5 -51t-12.5 -62 q0 -34 12.5 -62.5t34.5 -51t51 -34.5t62 -13q33 1 62 13t51 34.5t34.5 51t12.5 62.5q0 32 -12.5 62t-34.5 51t-51 34t-62 12v0z" />
<glyph unicode="&#xe63b;" d="M348 395v-104q0 -7 1.5 -11t4 -8t6 -5t7.5 -2q1 1 2.5 0.5t3.5 0.5t3.5 1t3.5 2l264 158q6 5 9 10t3 11.5t-3 11.5t-9 10l-264 158q-2 2 -3.5 2t-3.5 1t-3.5 0.5t-2.5 0.5q-4 -1 -7.5 -2t-6 -5t-4 -8t-1.5 -11v-104l-197 -1q-11 1 -21 -3.5t-17 -11.5t-11.5 -17t-4.5 -20 q0 -12 4.5 -21.5t11.5 -17t17 -11t21 -4.5l197 1v-1zM809 896l-544 1q-24 -1 -45.5 -9.5t-37.5 -25t-25 -37.5t-9 -46v-93q0 -12 4 -21.5t11.5 -17t17 -11.5t20.5 -5q11 1 21 5t17 11.5t11.5 17t4.5 21.5v39q0 15 5 26t13.5 20t20 13.5t25.5 5.5l437 -1q13 1 24.5 -4.5 t20.5 -13.5t14 -20t5 -25v-555q0 -13 -5 -25t-14 -20t-20.5 -13.5t-24.5 -4.5l-437 -1q-14 1 -25.5 5.5t-20 13.5t-13.5 20t-5 26v39q0 12 -4.5 21.5t-11.5 17t-17 11.5t-21 5q-11 -1 -20.5 -5t-17 -11.5t-11.5 -17t-4 -21.5v-93q0 -25 9 -46t25 -37.5t37.5 -25t45.5 -9.5 l544 1q25 -1 46 8.5t37 25t25.5 37.5t9.5 45v663q0 23 -9.5 45t-25.5 37.5t-37 25t-46 8.5v0z" />
<glyph unicode="&#xe63c;" d="M913 477q-3 14 -11 26t-18.5 20.5t-23.5 13.5t-27 6q-22 44 -55 81t-74.5 63t-90 40.5t-101.5 14.5t-101.5 -14.5t-90 -40.5t-74.5 -63t-55 -81q-14 -1 -27 -6t-23.5 -13.5t-18.5 -20.5t-11 -26q-2 -11 -4 -22.5t-3.5 -23t-2.5 -23.5t-1 -24t1 -24t2.5 -23.5t3.5 -23 t4 -22.5q3 -14 11 -26t18.5 -20.5t23.5 -13.5t27 -6h5.5t5.5 0.5l6 1t6 0.5q1 1 2.5 1t2.5 0.5t2.5 1t2.5 1.5q4 1 7.5 3l7 4t6.5 4.5t6 4.5q-8 16 -14 32t-10.5 33.5t-6.5 35.5t-2 36v8.5v8.5t0.5 8.5t1.5 8.5v2t0.5 2.5t0.5 2.5v2q1 3 1.5 6l1 6t1 6.5t1.5 6.5v2t0.5 2 l1 2t0.5 2q1 3 2 6.5t2 6.5l2 6l2 6q0 1 0.5 1.5t0.5 1.5t0.5 2l0.5 1q2 4 3.5 8t3 7.5l3 7t3.5 7.5q6 10 11.5 19.5t12.5 18l14 17t15 16.5q20 20 43.5 36t50 27t55 17t59.5 6t59.5 -6t55 -17t50 -27t43.5 -36q8 -8 15 -16.5l14 -17t12.5 -18t11.5 -19.5v0v0v0v0 q2 -4 3.5 -7.5t3 -7.5t3.5 -7.5t3 -7.5q0 -1 0.5 -1.5t0.5 -1t0.5 -1.5l0.5 -1q1 -3 2 -6.5t2 -6.5t2 -6.5t2 -6.5q0 -1 0.5 -2l1 -2t0.5 -2v-2q1 -3 1.5 -6t1 -6.5t1.5 -6.5t1 -6q0 -1 0.5 -2t0.5 -2.5v-2.5v-2q1 -4 1.5 -8.5t0.5 -8.5v-8.5v-8.5q0 -19 -2 -36.5t-6.5 -35 t-10.5 -33.5t-14 -32q3 -2 6 -4.5t6.5 -4.5l7 -4t7.5 -3q1 -1 2.5 -1.5l3 -1t2.5 -0.5t3 -1q2 0 5 -0.5l6 -1t5.5 -0.5h5.5q14 1 27 6t23.5 13.5t18.5 20.5t11 26q2 11 4 22.5t3.5 23t2.5 23.5t1 24t-1 24t-2.5 23.5t-3.5 23t-4 22.5v0zM743 384q0 -48 -18.5 -90t-49.5 -73 t-73 -49t-90 -18t-90 18t-73 49t-49.5 73t-18.5 90t18.5 90t49.5 73.5t73 49.5t90 18t90 -18t73 -49.5t49.5 -73.5t18.5 -90v0z" />
<glyph unicode="&#xe63d;" d="M506 276q0 -2 0.5 -3.5t0.5 -3.5v-4v-4q0 -17 -3.5 -34t-10 -33.5t-16.5 -32t-23 -28.5l-82 -82q-13 -13 -28.5 -23t-31.5 -16.5t-33.5 -10t-34.5 -3.5q-18 0 -35 3.5t-33.5 10t-31.5 16.5t-28 23l-1 1q-13 13 -23 28t-16.5 31.5t-10 33.5t-3.5 35q0 17 3.5 34.5t10 33.5 t16.5 31.5t23 28.5h1l81 82q13 13 28.5 23t32 16.5t33.5 10t34 3.5h4h4t3.5 -0.5t3.5 -0.5l-7 -7q-10 -10 -17.5 -22.5t-11.5 -26t-4.5 -27.5t1.5 -27q-4 -2 -7.5 -3.5t-7 -3.5t-7 -5t-6.5 -6v0l-82 -81q-6 -6 -10 -12t-6.5 -13t-4 -14t-1.5 -14t1.5 -14.5t4 -14t6.5 -13 t10 -11.5q5 -6 11.5 -10t13 -6.5t14 -4t14.5 -1.5t14 1.5t14 4t13 6.5t12 10l81 82q3 3 6 6.5t5 7t3.5 7t3.5 7.5q13 -2 27 -1.5t27.5 4.5t26 11.5t22.5 17.5l7 7v0zM909 844h-1q-13 14 -28 24t-31.5 16.5t-33.5 10t-35 3.5q-17 0 -34.5 -3.5t-33.5 -10t-31.5 -16.5 t-28.5 -24l-82 -81q-13 -13 -23 -28.5t-16.5 -32t-10 -33.5t-3.5 -34v-4v-4t0.5 -3.5t0.5 -3.5l7 7q10 10 22.5 17.5t26 11.5t27 4.5t27.5 -1.5q1 4 3 7.5t3.5 7t5 7t5.5 6.5l82 82q5 6 11.5 10t13 6.5t14 4t13.5 1.5q8 0 15 -1.5t14 -4t13 -6.5t12 -10h-1q7 -5 10.5 -11.5 t6.5 -13t4 -14t2 -14.5l-2 -14t-4 -14t-6.5 -13t-10.5 -12h1l-83 -81q-2 -3 -6 -6t-7 -5t-7 -3.5t-7 -3.5q1 -13 1 -27t-4.5 -27.5t-11.5 -26t-19 -22.5l-5 -7q1 0 3 -0.5t3.5 -0.5h4h2.5q19 0 35.5 3.5t33.5 10t31.5 16.5t29.5 23h-1l82 82q13 13 23.5 28.5t16.5 31.5 t10 33.5t3 34.5q1 18 -3 35t-10 33.5t-16.5 31.5t-23.5 28h1zM453 315l192 191q7 8 11.5 17.5t4 20t-4 20t-12.5 17.5q-7 8 -17 12t-20 4t-20 -4t-17 -12l-192 -191q-7 -8 -11.5 -17.5t-4 -20t4 -20t12.5 -17.5q7 -8 17 -12t20 -4t20 4t17 12v0z" />
<glyph unicode="&#xe63e;" d="M919 556l-54 37l-4 2t-4.5 2t-5 1.5t-4.5 0.5h-113v93l18 47q1 1 1 2.5t0.5 3t0.5 3v2.5v74q0 3 -0.5 6.5t-1.5 6t-3 5.5t-4 5t-5 4t-5.5 3t-6 1.5t-6.5 0.5h-101q-4 0 -8.5 -1.5t-8.5 -4t-7 -6t-5 -7.5l-1 -2t-2.5 -5.5t-3.5 -8.5t-5 -12q-9 -19 -22 -48t-27.5 -61.5 t-29.5 -64t-28 -56.5q-3 -6 -7 -11.5t-8.5 -10.5t-9.5 -9.5t-11 -8.5q-9 -6 -18 -11t-18.5 -8.5t-19 -6.5t-17.5 -4l-1 -1h-0.5h-1h-0.5v24q0 3 -1 6.5t-2 6t-2.5 5.5t-4.5 5q-2 2 -4.5 4t-5.5 3t-6 1.5t-6 0.5h-206q-3 0 -6 -0.5t-6 -1.5t-5.5 -3t-4.5 -4q-3 -2 -4.5 -5 t-3 -5.5t-2 -6t-0.5 -6.5v-411q0 -3 0.5 -6.5t2 -6t3 -5.5t4.5 -5q2 -2 4.5 -4t5.5 -3t6 -1.5t6 -0.5h206q3 0 6 0.5t6 1.5t5.5 3t4.5 4q3 2 4.5 5t2.5 5.5t2 6t1 6.5v35h101l81 -61q2 -1 4.5 -2.5t5 -2l5 -1t4.5 -0.5h260q2 0 5 0.5t5.5 1.5t5 2.5t4.5 2.5l79 67q3 3 5 5.5 t3.5 5.5t2.5 6.5t1 7.5v341q0 4 -1 8t-3 7.5t-4.5 6.5t-5.5 5v0zM869 203l-59 -50h-237l-81 60q-2 2 -4 3t-4.5 2t-5 1.5t-5.5 0.5h-112v223l10 2t11 2.5t12.5 3t12.5 3.5q8 3 16.5 6t17 7t16.5 9t17 10q8 6 16 13t15 15t13.5 17t11.5 19q9 17 18.5 37.5t20 42t20.5 43.5 t19 42q5 12 10 23t9.5 21t8 18.5t6.5 14.5h48v-36l-18 -47q0 -1 -0.5 -2.5l-1 -3t-0.5 -3v-2.5v-131q0 -4 0.5 -7t2 -6t3 -5.5t3.5 -4.5q3 -2 5.5 -4t5.5 -3t6 -1.5t6 -0.5h135l32 -22v-310v0z" />
<glyph unicode="&#xe63f;" d="M836 772q-34 34 -72 59t-80 42t-85 25.5t-88 8.5q-43 0 -87 -8.5t-85 -25.5t-80 -42t-71 -59q-69 -67 -102 -151.5t-33.5 -172.5t33.5 -172.5t101 -151.5q34 -34 72 -59t80 -42t85 -25.5t88 -8.5q43 0 87 8.5t85 25.5t80 42t71 59q68 67 101.5 151.5t34 172.5t-34 172.5 t-100.5 151.5v0zM790 169q-27 -28 -59.5 -49.5t-67.5 -36.5t-73.5 -22.5t-77.5 -7.5q-41 0 -78.5 7.5t-73.5 22.5t-67.5 36.5t-60.5 49.5q-8 9 -17 19t-16 20t-14.5 20.5t-13.5 21.5q0 1 1 3t1.5 3.5t1.5 3.5t1 4q2 4 3.5 7.5t3.5 7.5t3 7.5t4 6.5q0 3 2 5.5t3 4.5t2.5 3.5 t0.5 1.5l3.5 3.5l3.5 3.5t3.5 4t5.5 4q0 1 1.5 2.5t2 3t2.5 3.5t2 4q2 2 2.5 4.5t1.5 5.5t1 5.5t1 5.5q-1 3 -1 5t-1 4.5t-1 4.5t-2 4q0 3 -2 6t-3 5.5t-3 5t-3 5.5q-3 2 -4.5 4.5t-4.5 5.5t-5 6t-6 5q-7 8 -13 14.5t-10 11.5t-7.5 9.5t-4.5 8.5q-2 2 -2.5 3.5t-2 3.5 t-1.5 4.5t-2 4.5q0 2 -1.5 5t-1.5 6t-1.5 6.5t-1.5 7.5q-2 5 -2 11t-1.5 13t-1.5 14.5t-1 15.5q1 1 0.5 3t-0.5 3.5t-0.5 3.5t0.5 3q6 22 16 42.5t21.5 40.5t26.5 38.5t31 35.5q12 11 23 20.5t23.5 18.5t24.5 17t26 15q1 0 3 -0.5t3.5 -0.5h4h3.5h3h2.5h2.5h3q13 1 22.5 1.5 t15 0.5h9t5.5 1h4.5h6.5h11t17 1q5 0 10.5 0.5t10 1t9.5 1t8 1.5q7 2 12 4t10.5 4.5t9.5 5.5l8 6q2 3 5 5t4.5 4t3.5 4l3 3q21 -1 40 -4.5t38 -8.5t37 -12t36 -16q-10 0 -21 -1.5t-23 -5.5t-20.5 -10.5t-14.5 -17.5q-1 -6 -1.5 -13.5t2 -15l5 -15t8.5 -12.5q3 -5 8.5 -7 t9.5 -2.5t7 0t2 0.5q7 2 13 1.5t12 -3t9.5 -7t7.5 -11.5q1 -6 1 -12t-3 -12t-7 -10t-11 -7l-3 -1t-6.5 -1.5t-9 -1t-10.5 -0.5h-8.5t-8 1l-9 2t-9.5 3q-4 2 -9.5 5t-9.5 6.5t-8.5 7.5t-7.5 9h-1q-4 6 -8.5 18.5t-8.5 25t-10 22.5t-13 10q-10 0 -16 -3t-11.5 -7.5t-9.5 -11 t-9 -13.5q-2 -6 -0.5 -11t6.5 -10.5t8.5 -12t4.5 -15.5q-1 -10 -9.5 -18.5t-17.5 -16.5t-12 -16.5t8 -18.5q10 -8 30 -17t43 -16t41.5 -10.5t26.5 -2.5t16.5 1.5t15 -1t12.5 -4.5t9 -8q5 -5 6 -10.5t0.5 -10.5t-3.5 -9.5t-5 -6.5q-2 -1 -3.5 -2.5t-5.5 -4t-8.5 -5.5 t-11.5 -6q-5 -3 -12.5 -4.5t-14.5 -1t-15 3t-15 7.5q-5 2 -7.5 4t-6 3.5t-5.5 2.5t-5 2q-1 1 -3.5 1.5t-4 1.5t-4 1.5t-3.5 0.5q-5 2 -9.5 3t-11.5 3t-14.5 4.5t-18.5 5.5q-5 3 -18.5 10.5t-28.5 13.5t-31.5 7t-28.5 -11q-14 -11 -23 -24.5t-15.5 -27t-9 -25.5t-3.5 -22 q1 -3 0.5 -7t1 -8t2 -8t2.5 -8q1 -6 5 -12t7.5 -11.5t9 -10t10.5 -9.5q7 -4 13.5 -7.5t14 -6t15.5 -5t18 -3.5q11 -2 22 -4.5t18.5 -4.5t14.5 -4.5t10 -5.5q3 -1 3.5 -2t2 -2t2 -2t1.5 -2q0 -1 0.5 -2t0.5 -2.5t0.5 -3t0.5 -4.5q1 -3 0 -6.5t-1.5 -8t-2.5 -9.5t-3 -11 q-4 -11 -6.5 -21.5t-5 -20.5t-3 -19.5t-1.5 -18.5q1 -3 0.5 -6t0.5 -6.5t1 -6.5t2 -6q0 -5 2.5 -10t5 -9.5t6.5 -8.5t8 -7q5 -4 9.5 -6t10 -3.5t10.5 -2t11 -0.5h6.5t7.5 0.5t7 1.5t7 1q14 4 25.5 9t23.5 10.5t21.5 12t18.5 13.5q4 4 8.5 7.5t8 7l7 7l6.5 6.5q4 3 6 6.5 t5 6.5t4.5 6.5t4.5 6.5q2 5 5 9t4.5 8.5t4.5 8t4 7.5q3 4 5 7.5t5.5 7t6 7t7.5 7.5q0 2 2.5 3.5t4.5 3t5.5 3.5t5.5 5q13 9 13 17.5t-4.5 15t-12.5 11.5t-12 8q-17 8 -30 17t-23 16.5t-15 13t-6 5.5q-4 5 -7 11t-2.5 12t2.5 12t8 10q3 5 9.5 7.5t12 2.5t12 -2.5t10.5 -7.5h1 v0l4 -3q0 -1 1.5 -2t2.5 -2.5t3.5 -3t3.5 -2.5q5 -4 9 -7t9.5 -6.5l11 -7t12.5 -6.5q3 -2 12.5 -6t17.5 -5.5t15.5 0.5t6.5 11q0 20 3.5 27.5t9.5 8.5t11 -2t8 -4q7 -4 12.5 -10t8 -13t4 -14t1.5 -13q-4 -29 -14 -58t-23 -56t-31.5 -52t-40.5 -48h-1z" />
<glyph unicode="&#xe640;" d="M836 124q-67 -67 -151.5 -101t-172.5 -34t-172.5 34t-151.5 101q-68 67 -101.5 151.5t-33.5 172.5t33.5 172.5t101.5 151.5q67 67 151.5 101t172.5 34t172.5 -34t151.5 -101t101 -151.5t34 -172.5t-34 -172.5t-101 -151.5v0zM581 181v314q0 15 -5.5 27.5t-14.5 22 t-22 14.5t-27 5t-27 -5t-22 -14.5t-14.5 -22t-5.5 -27.5v-314q0 -14 5.5 -26.5t14.5 -22t22 -15t27 -5.5t27 5.5t22 15t14.5 22t5.5 26.5v0zM512 635q14 0 27 5.5t22 14.5t14.5 22t5.5 27t-5.5 27t-14.5 22.5t-22 14.5t-27 5t-27 -5t-22 -14.5t-14.5 -22.5t-5.5 -27t5.5 -27 t14.5 -22t22 -14.5t27 -5.5v0z" />
<glyph unicode="&#xe641;" d="M900 520l-342 342q-10 9 -21.5 14t-24 5t-24 -5t-21.5 -14l-342 -342q-19 -19 -25 -35.5t-1.5 -28.5t21.5 -19.5t42 -7.5h13l-1 -414h214l-1 265q1 3 1.5 6t2 6t2.5 5.5t5 5.5q1 2 4 3.5t5.5 3t6 2t5.5 0.5h187q2 0 5.5 -0.5t6 -2t5.5 -3t4 -3.5q4 -3 5 -5.5t2.5 -5.5 t2 -6t1.5 -6l-1 -265h214l-1 414h13q25 0 42 7.5t21.5 19.5t-1.5 28.5t-25 35.5v0z" />
<glyph unicode="&#xe642;" d="M501 852q52 0 102 -12.5t89 -39t62.5 -68t23.5 -98.5q0 -54 -26 -92t-59.5 -66.5t-66 -49.5t-45.5 -40q-10 -15 -15 -31t-12.5 -29.5t-21.5 -22.5t-41 -9q-17 0 -30.5 6.5t-22 17t-13 23.5t-4.5 26q0 49 30 81.5t66 60.5t65.5 56t29.5 69q0 22 -7 39t-20.5 29.5t-33 18.5 t-43.5 6q-53 0 -74.5 -22.5t-34 -49.5t-28 -49.5t-54.5 -22.5q-15 0 -27.5 4.5t-22.5 13t-15.5 21t-5.5 28.5q0 40 21 76.5t56.5 64.5t81.5 44.5t96 16.5v0zM496 223q18 0 34.5 -7t28.5 -19t19 -28.5t7 -34.5q0 -19 -7 -35t-19 -28.5t-28.5 -19.5t-34.5 -7q-19 0 -35 7 t-28.5 19.5t-19.5 28.5t-7 35q0 18 7 34.5t19.5 28.5t28.5 19t35 7v0z" />
<glyph unicode="&#xe643;" d="M158 103q-33 0 -55 18t-35.5 52t-19 82.5t-5.5 109.5t14 135.5t42 139.5t70.5 109t98.5 44t75.5 -7.5t33.5 -16.5t39.5 -17t95.5 -8t95.5 8t39.5 17t33.5 16.5t75.5 7.5t98.5 -44t70.5 -109t42 -139.5t14 -135.5t-5.5 -109.5t-19 -82.5t-35.5 -52t-55 -18t-59 41t-62 90 t-90 90t-143 41t-143 -41t-90 -90t-62 -90t-59 -41v0zM250 640q-22 0 -41.5 -8.5t-34 -23t-22.5 -34t-8 -41.5t8 -41.5t22.5 -34t34 -22.5t41.5 -8t41.5 8t34 22.5t23 34t8.5 41.5t-8.5 41.5t-23 34t-34 23t-41.5 8.5v0zM745 690q-11 0 -20.5 -4.5t-17 -11.5t-11.5 -17 t-4 -21t4 -20.5t11.5 -17t17 -11.5t20.5 -4t21 4t17 11.5t11.5 17t4.5 20.5t-4.5 21t-11.5 17t-17 11.5t-21 4.5v0zM642 587q-11 0 -20.5 -4.5t-17 -11.5t-11.5 -17t-4 -21t4 -20.5t11.5 -17t17 -11.5t20.5 -4t21 4t17 11.5t11.5 17t4.5 20.5t-4.5 21t-11.5 17t-17 11.5 t-21 4.5v0zM745 484q-11 0 -20.5 -4.5t-17 -11.5t-11.5 -17t-4 -21t4 -20.5t11.5 -17t17 -11.5t20.5 -4t21 4t17 11.5t11.5 17t4.5 20.5t-4.5 21t-11.5 17t-17 11.5t-21 4.5v0zM848 587q-11 0 -20.5 -4.5t-17 -11.5t-11.5 -17t-4 -21t4 -20.5t11.5 -17t17 -11.5t20.5 -4 t21 4t17 11.5t11.5 17t4.5 20.5t-4.5 21t-11.5 17t-17 11.5t-21 4.5v0z" />
<glyph unicode="&#xe644;" d="M64 629v149q0 14 5 25t13.5 20.5t20.5 14t25 5.5l320 -1q13 1 25 -4.5t20.5 -14t13.5 -20.5t5 -24v-1l384 1q13 -1 25 -5.5t20.5 -14t13.5 -20.5t5 -25v-85l-896 -1v1zM960 565l-896 -1q-13 1 -25 -4.5t-20.5 -13.5t-13.5 -20t-5 -25l64 -385q0 -12 5 -24t13.5 -20.5 t20.5 -14t25 -4.5l768 -1q13 1 25 5.5t20.5 14t13.5 20.5t5 25l64 383q0 15 -5 26t-13.5 20t-20.5 13.5t-25 5.5v0zM160 394q-7 1 -12.5 3t-10 6.5t-7 10t-2.5 13.5q0 5 2.5 11.5t7 10.5t10 7t12.5 2l704 1q7 -1 12.5 -3t10 -7t7 -10.5t2.5 -12.5q0 -6 -2.5 -12.5t-7 -10 t-10 -6.5t-12.5 -2l-704 -1v0z" />
<glyph unicode="&#xe645;" d="M960 715v-597q0 -14 -5 -25t-13.5 -20.5t-20.5 -14t-25 -5.5l-768 1q-13 -1 -25 4.5t-20.5 14t-13.5 20.5t-5 24v663q0 12 5 24t13.5 20.5t20.5 14t25 4.5l320 1q13 -1 25 -5.5t20.5 -14t13.5 -20.5t5 -25v1l384 -1q13 1 25 -4.5t20.5 -14t13.5 -20.5t5 -24v-1zM160 608 l704 1q7 -1 12.5 2t10 7t7 10t2.5 12q0 8 -2.5 13t-7 10t-10 7t-12.5 3l-704 -1q-7 1 -12.5 -2t-10 -7t-7 -10t-2.5 -12q0 -8 2.5 -13t7 -10t10 -7t12.5 -3v0z" />
<glyph unicode="&#xe646;" d="M749 42l-237 151l-235 -152q-12 -7 -20 -8.5t-14 2.5t-6.5 12.5t1.5 21.5l72 271l-219 177q-9 8 -13.5 15.5t-2 13.5t9.5 10t21 5l280 17l102 261q4 12 10.5 18.5t12.5 6.5t12.5 -6.5t10.5 -18.5l103 -261l279 -15q15 -1 22 -5t9.5 -10t-2 -13.5t-13.5 -15.5l-218 -178 l73 -271q2 -13 1.5 -21.5t-6 -12.5t-14 -2.5t-20.5 8.5h1z" />
<glyph unicode="&#xe647;" d="M962 576h-515l492 87q13 2 23.5 9t17 16.5t9.5 21.5t1 25l-31 174q-2 12 -9 22.5t-16.5 17.5t-21.5 9.5t-25 0.5l-836 -147q-12 -3 -22 -9t-16 -15t-9.5 -21.5t-3.5 -26.5v-742q0 -13 5 -24t13.5 -19.5t19.5 -13.5t24 -5h900q13 0 24 5t19.5 13.5t13.5 19.5t5 24v516 q0 13 -5 24.5t-13.5 19.5t-19.5 13t-24 5v0zM749 850l126 22l-51 -141l-126 -22l51 141v0zM158 746l127 22l-52 -141l-126 -22l51 141v0zM196 361l-75 130h128l75 -130h-128v0zM453 798l126 22l-52 -141l-126 -22l52 141v0zM497 361l-75 130h128l75 -130h-128v0zM796 361 l-75 130h128l75 -130h-128v0zM96 43q-7 0 -12.5 2.5t-10 6.5t-7 10t-2.5 13q0 6 2.5 12t7 10.5t10 7t12.5 2.5h832q7 0 12.5 -2.5t10 -7t7 -10.5t2.5 -12q0 -7 -2.5 -13t-7 -10t-10 -6.5t-12.5 -2.5h-832v0z" />
<glyph unicode="&#xe648;" d="M869 898v-900q0 -13 -4.5 -24t-13 -19.5t-20 -13.5t-24.5 -5h-590q-13 0 -24.5 5t-20 13.5t-13 19.5t-4.5 24v900q0 13 4.5 24t13 19.5t20 13.5t24.5 5h590q13 0 24.5 -5t20 -13.5t13 -19.5t4.5 -24v0zM805 179v709q0 1 -0.5 2.5t-1.5 3t-2.5 2t-3.5 0.5h-570 q-2 0 -3.5 -0.5t-2.5 -2t-1.5 -3t-0.5 -3.5v-708q0 -2 0.5 -3.5t1.5 -2.5t2.5 -1.5t3.5 -0.5h570q2 0 3.5 0.5t2.5 1.5t1.5 2.5t0.5 3.5v0zM512 107q-11 0 -20.5 -4.5t-17 -11.5t-11.5 -17t-4 -21t4 -20.5t11.5 -17t17 -11.5t20.5 -4t20.5 4t17 11.5t11.5 17t4 20.5t-4 21 t-11.5 17t-17 11.5t-20.5 4.5v0zM512 679q-18 0 -33.5 -7t-27 -18.5t-18.5 -27t-7 -33.5q0 -11 3 -21t7.5 -19t11.5 -16.5t15 -13.5q-36 -8 -57 -21.5t-31.5 -28.5t-13 -30.5t-3.5 -27.5q0 -2 1 -5t2.5 -5t3.5 -4t5 -3q6 -1 16.5 -3t27 -3.5t40.5 -2.5t58 -1t58 1t41 2.5 t27 3.5t16 3q3 1 5 3t3.5 4t2.5 5t1 5q-1 12 -3.5 27.5t-13 30.5t-31.5 28.5t-57 21.5q8 6 15 13.5t11.5 16.5t7.5 19t3 21q0 18 -7 33.5t-18.5 27t-27 18.5t-33.5 7v0zM662 593q0 -5 -0.5 -10l-1 -10t-1.5 -10t-3 -10q17 -11 30.5 -25t22.5 -31t14.5 -36.5t6.5 -42.5 q0 -14 -4 -27t-12 -24t-19 -19t-25 -11q-8 -3 -20 -5t-30.5 -4t-44.5 -3t-63 -1t-63 1t-44.5 3t-30.5 4t-20 5q-14 3 -25 11t-19 19t-12 24t-3 27q0 23 5.5 42.5t14.5 36.5t22.5 31t30.5 25q-1 5 -2.5 10t-2 10l-1 10t-0.5 10q0 31 12 58.5t32.5 47.5t47.5 32t58 12t58 -12 t47.5 -32t32.5 -47.5t12 -58.5v0z" />
<glyph unicode="&#xe649;" d="M512 749q38 0 71.5 -14.5t59 -39.5t40 -58.5t14.5 -72.5q0 -23 -6 -45t-16.5 -41.5t-25 -36t-32.5 -28.5q79 -18 126 -42.5t71.5 -52.5t32.5 -57t9 -55q0 -5 -2 -11t-5 -11t-7.5 -9t-10.5 -5q-13 -4 -37 -8t-62 -7t-92 -5.5t-128 -2.5t-128 2.5t-92 5.5t-62 7t-37 8 q-6 1 -10.5 5t-8 9t-5 11t-1.5 11q1 26 9 55t32.5 57t71.5 52.5t126 42.5q-18 12 -32.5 28.5t-25 36t-16.5 41.5t-6 45q0 39 14.5 72.5t40 58.5t59 39.5t71.5 14.5v0zM512 856q-60 0 -113 -23t-92.5 -62.5t-62.5 -92.5t-23 -114q0 -12 1 -24.5t3 -24.5t5 -24t7 -23 q-42 -21 -74 -47t-54 -58t-34 -70t-13 -82q-1 -25 6 -48t21 -42.5t34 -33.5t43 -20q25 -7 59 -12t77.5 -8t96 -5t113.5 -2t113.5 2t96 5t77.5 8t59 12q24 6 43.5 20t33.5 33.5t21.5 42.5t5.5 48q-1 44 -13 82t-34 70t-54 58t-74 47q4 11 7 23t5 24t3 24.5t1 24.5 q0 61 -23 114t-62.5 92.5t-92.5 62.5t-113 23v0z" />
<glyph unicode="&#xe64a;" d="M149 811l317 -317q5 -5 10 -8t11 -6t12 -3.5t13 -1.5q5 1 12 1.5t12 3.5t11 6t9 8l167 165l-2 2l77 74h-1l77 76l-726 1zM873 660l-1 1l-74 -77l-2 1l-194 -195q-10 -9 -20 -16.5t-22 -11.5t-24 -7t-25 -2q-11 -1 -24 2t-24 7t-22 11.5t-19 15.5l-392 392 q-1 -5 -3.5 -8.5t-3 -8t-2 -8.5t-0.5 -9l-1 -597q1 -14 5.5 -25t14 -20.5t20.5 -14t25 -5.5l853 1q14 -1 25 4.5t20.5 14t14 20.5t5.5 24l-1 599q1 3 -0.5 8t-2 8.5t-3 8t-3.5 7.5l-121 -119z" />
<glyph unicode="&#xe64b;" d="M624 759q5 -5 10 -8t11 -6t12 -3.5t13 -1.5l132 1l-196 197l-1 -133q1 -8 2 -13.5t3.5 -12t5.5 -11t9 -10.5zM781 82l-12 -14q-6 -4 -10 -8.5t-9.5 -7.5t-10.5 -6.5t-11 -5.5q-2 -3 -4.5 -4t-5 -2.5t-6 -1.5t-5.5 -1l-1 1q-1 -2 -3.5 -2t-4 -1t-4 -1t-3.5 -1l-93 -22 l-1 -2q-3 1 -5 0t-4.5 -0.5t-4 0t-4.5 0.5q-9 -1 -18.5 1.5t-17.5 5.5t-16 9t-13 12l-341 1q-6 -1 -12.5 2t-10 7t-6.5 10t-2 12q-1 8 2 13t6.5 10t10 7t12.5 3l319 -1q-1 2 -0.5 3t0.5 3t0.5 3t-0.5 4l1 1v3l23 87l-343 1q-6 -1 -12.5 2t-10 7t-6.5 10.5t-2 11.5 q-1 8 2 13.5t6.5 10t10 6.5t12.5 3l372 -1q-1 2 0 2.5t1.5 2t1.5 1.5t1 2l1 1l7 8l90 88l-474 1q-6 -1 -12.5 2t-10 7t-6.5 10t-2 12q-1 7 2 12.5t6.5 10.5t10 7t12.5 3l534 -1q-1 1 0 0.5t1 0t1 0t0 0.5l48 46q4 6 10 10t11.5 8t12 7t11.5 7l1 165l-134 1q-12 -1 -25 2 t-24 7t-22 11.5t-18 15.5q-10 10 -16.5 19.5t-12 21.5t-7.5 24t-3 27l1 133l-401 1q-12 -1 -24.5 -5.5t-20.5 -14t-13.5 -20.5t-4.5 -25l-1 -853q1 -14 5.5 -25t13.5 -20.5t20.5 -14t25.5 -5.5l596 1q14 -1 25.5 4.5t20.5 14t13.5 20.5t5.5 24l-1 83l-20 -22zM173 601 l534 -1q6 1 12 -2t10 -6.5t7 -10t2 -12.5q1 -7 -2 -12.5t-7 -10.5t-10 -7t-12 -3l-534 1q-6 -1 -12.5 2t-10 7t-6.5 10.5t-2 11.5q-1 8 2 13.5t6.5 10t10 6.5t12.5 3v0zM910 300l12 14q14 11 19.5 27.5t6 32t-6 32t-18.5 27.5q-7 8 -13.5 12t-15 7.5t-16 4.5t-16.5 2 q-7 -1 -16 -2t-16 -4.5t-14.5 -7.5t-12.5 -12l-15 -12l122 -121v0zM864 255l-120 120l-142 -140q-4 -6 -8.5 -11t-7 -11.5t-5 -12t-2.5 -12.5l-24 -91q0 -8 0.5 -13t4.5 -9.5t8.5 -6t11.5 -2.5q-1 1 0.5 0.5t1.5 0t1.5 0t1.5 0.5l93 22q5 2 11.5 3.5t12 5t11.5 7t10 9.5 l14 12l-1 1l129 127z" />
<glyph unicode="&#xe64c;" d="M836 124q-67 -67 -151.5 -101t-172.5 -34t-172.5 34t-151.5 101t-101 151.5t-34 172.5t34 172.5t101 151.5t151.5 101t172.5 34t172.5 -34t151.5 -101t101 -151.5t34 -172.5t-34 -172.5t-101 -151.5v0zM367 721v-2.5t0.5 -2.5t1 -2.5t1.5 -3.5l123 -199q4 -5 9 -8t10 -3 t10 3t9 8l123 199q1 2 1.5 3.5t1 2.5t0.5 2.5v2.5q0 4 -1.5 7t-4.5 5.5t-7.5 3.5t-9.5 1h-74v64q0 9 -4 18t-10.5 15.5t-15 10t-18.5 3.5t-18.5 -3.5t-15 -10t-10.5 -15.5t-4 -18v-64h-74q-6 0 -10 -1t-7 -3.5t-4.5 -5.5t-1.5 -7v0zM348 186q1 0 2 1l2 2t2 2.5t2 2.5 l110 206q3 6 3 11.5t-2.5 10t-7.5 7.5t-11 4l-234 7q-2 0 -3.5 -0.5t-3 -0.5t-2.5 -0.5t-2 -1.5q-4 -2 -5.5 -5t-2 -6.5t0.5 -8t4 -8.5l37 -65l-55 -31q-9 -5 -14.5 -12.5t-8 -16.5t-1.5 -18.5t6 -18.5q5 -8 13 -13.5t16.5 -8t18 -1.5t18.5 6l55 32l37 -65q3 -4 6 -7.5 t6.5 -5t7 -1t6.5 2.5v0zM821 437q-1 1 -2 1.5t-2.5 0.5t-3 0.5t-3.5 0.5l-234 -7q-7 -1 -11.5 -4t-7 -7.5t-2.5 -10t2 -11.5l111 -206q1 -1 2 -2.5t2 -2.5l2 -2t2 -1q3 -2 6.5 -2.5t7 1t6.5 5t6 7.5l37 65l55 -32q9 -5 18.5 -6t18 1t16 8t12.5 14q5 9 6.5 18.5t-1 18 t-8 16.5t-14.5 13l-55 31l37 65q3 4 4 8.5t0.5 8t-2.5 6.5t-5 5v0z" />
<glyph unicode="&#xe64d;" d="M491 359q4 -6 9.5 -9t11.5 -3t11.5 3t9.5 9l159 265q3 6 3 12t-3 10t-8.5 6.5t-13.5 2.5h-105v193q0 11 -4 21t-11.5 17t-17 11.5t-20.5 4.5t-21 -4.5t-17 -11.5t-11 -17t-4 -21v-193h-105q-8 0 -13.5 -2.5t-8.5 -6.5t-3 -10t3 -12l159 -265v0zM843 453h-94q-11 0 -21 -4 t-17 -11.5t-11.5 -17t-4.5 -20.5t4.5 -21t11.5 -17t17 -11.5t21 -4.5h40q14 0 25.5 -5t20 -13.5t13.5 -20t5 -24.5v-118q0 -13 -5 -24.5t-13.5 -20.5t-20 -14t-25.5 -5h-554q-14 0 -25.5 5t-20 14t-13.5 20.5t-5 24.5v118q0 13 5 24.5t13.5 20t20 13.5t25.5 5h40 q11 0 21 4.5t17 11.5t11.5 17t4.5 21t-4.5 20.5t-11.5 17t-17 11.5t-21 4h-94q-24 0 -45.5 -9t-37.5 -25t-25 -37.5t-9 -45.5v-224q0 -24 9 -45.5t25 -37.5t37.5 -25.5t45.5 -9.5h662q24 0 45.5 9.5t37.5 25.5t25 37.5t9 45.5v224q0 24 -9 45.5t-25 37.5t-37.5 25t-45.5 9v0 z" />
<glyph unicode="&#xe64e;" d="M742 677h133v-337h-726v535q0 13 5 24.5t14 20.5t20.5 14t24.5 5h401v-134q0 -14 2.5 -26.5t7.5 -24t11.5 -21.5t15.5 -19t19 -16t21.5 -11.5t24 -7t26.5 -2.5v0v0zM696 759q5 -4 10 -7.5t11 -6t12 -3.5t13 -1h133l-197 198v-134q0 -7 1 -13t3.5 -12t6 -11t7.5 -10v0z M149 276h726v-255q0 -13 -5 -24.5t-14 -20.5t-20.5 -14t-24.5 -5h-598q-13 0 -24.5 5t-20.5 14t-14 20.5t-5 24.5v255v0zM240 54q0 -7 2 -11.5t5 -7.5t7.5 -4t10.5 -1h50q21 0 37.5 6t28 18t17 29t5.5 39q0 27 -7 45t-19 28.5t-28 14.5t-33 4h-51q-6 0 -10.5 -1t-8 -4 t-5 -7.5t-1.5 -11.5v-136v0zM282 180h35q12 0 20 -4t13.5 -11.5t8.5 -18t3 -24.5q0 -11 -2.5 -21.5t-7.5 -18.5t-13.5 -13t-21.5 -5h-35v116v0zM426 124q0 -21 5.5 -39t16.5 -31t28.5 -20.5t42.5 -7.5q24 0 41.5 8t29 21.5t17 31.5t5.5 37q0 21 -6 38t-17.5 29.5t-29 19.5 t-40.5 7q-22 0 -39.5 -7t-29.5 -19.5t-18 -29.5t-6 -38v0zM468 124q0 14 3 25t9.5 19t16 12.5t22.5 4.5t22.5 -4.5t16 -12.5t9.5 -19t3 -25q0 -13 -2.5 -25t-8.5 -20.5t-15.5 -14t-24.5 -5.5t-24.5 5.5t-15.5 14t-8.5 20.5t-2.5 25v0zM632 122q0 -24 6.5 -42t18 -30 t28.5 -18t39 -6q15 0 28.5 4.5t23 12t15.5 17t6 19.5q0 3 -2 6t-5 5t-6.5 3.5t-7.5 1.5q-7 0 -11.5 -5.5t-9.5 -12.5t-12 -12.5t-19 -5.5q-14 0 -23.5 5.5t-15.5 14t-8.5 19.5t-2.5 24q0 15 4 26.5t10.5 19.5t15 12.5t18.5 4.5q15 0 22 -5.5t11.5 -11.5t9 -11.5t13.5 -5.5 q5 0 8.5 1.5t5.5 4t3.5 6t1.5 7.5q0 7 -5 15.5t-14.5 15.5t-23.5 12t-32 5q-22 0 -39 -7.5t-28 -20.5t-17 -31t-6 -37v0z" />
<glyph unicode="&#xe64f;" d="M923 822q-2 2 -4.5 4t-5.5 2.5t-6 2t-6 0.5l-206 1q-3 -1 -6 -1.5t-6 -2t-5.5 -2.5t-4.5 -5q-3 -1 -4.5 -4t-2.5 -5.5t-2 -6t-1 -5.5v-36l-101 1l-81 59q-2 3 -4.5 3.5t-5 2t-5 1.5t-4.5 1l-260 -1q-2 1 -5 0t-5.5 -1.5t-5 -2.5t-4.5 -3l-79 -68q-3 -1 -5 -4.5t-3.5 -6 t-2.5 -6.5t-1 -6v-343q0 -3 1 -7.5t3 -7t4.5 -6t5.5 -4.5l54 -38q2 -1 4 -2.5t4.5 -1.5t5 -1t4.5 0l113 -1v-92l-18 -48q-1 0 -1 -2t-0.5 -3t-0.5 -3v-3v-75q0 -2 0.5 -5.5t1.5 -6t3 -5.5t4 -4q2 -4 5 -5t5.5 -2.5t6 -2t6.5 -1.5l101 1q4 -1 8.5 1t8.5 4t7 6t5 7q0 2 1 2.5 t2.5 5.5t3.5 9t5 12q9 18 22 48t27.5 61t29.5 64t28 55q3 8 7 13t8.5 11t9.5 9.5t11 9.5q9 4 18 9.5t18.5 8.5t19 6.5t17.5 3.5q1 2 1 1t0.5 0t1 0t0.5 2v-27q0 -1 1 -5t2 -6t2.5 -5.5t4.5 -3.5q2 -5 4.5 -5.5t5.5 -3t6 -2t6 -1.5l206 2q3 -2 6 -0.5t6 2t5.5 3t4.5 3.5 q3 4 4.5 5.5t3 5.5t2 6t0.5 7v410q0 5 -0.5 7t-2 6t-3 5.5t-4.5 5.5v0zM617 464q-8 0 -16.5 -4.5t-17 -7.5t-16.5 -8.5t-17 -9.5q-8 -8 -16 -13.5t-15 -14.5t-13.5 -17t-11.5 -21q-9 -15 -18.5 -36t-20 -41.5t-20.5 -43.5t-19 -41q-5 -14 -10 -24.5t-9.5 -21t-8 -18 t-6.5 -16.5l-48 2v34l18 49q0 -1 0.5 1.5t1 3t0.5 3v2.5v133q0 1 -0.5 5t-2 6t-3 5.5t-3.5 4.5q-3 4 -5.5 4.5t-5.5 3t-6 2t-6 1.5l-135 -2l-32 24v308l59 52l237 -2l81 -59q2 -3 4 -3.5t4.5 -2t5 -1t5.5 -1.5l112 2v-225q-5 1 -10 -1t-11 -2.5t-12.5 -3t-12.5 -3.5v-2z" />
<glyph unicode="&#xe650;" d="M1024 769v-584q0 -13 -5 -24.5t-13.5 -20t-19.5 -13t-24 -4.5h-192v-25q0 -7 -2.5 -13t-7 -10.5t-10.5 -7t-13 -2.5h-477q-7 0 -13 2.5t-10.5 7t-7 10.5t-2.5 13v25h-165q-13 0 -24 4.5t-19.5 13t-13.5 20t-5 24.5v584q0 13 5 24t13.5 19.5t19.5 13.5t24 5h900 q13 0 24 -5t19.5 -13.5t13.5 -19.5t5 -24v0zM892 725h-760q-2 0 -3.5 -0.5t-3 -1.5t-2 -2.5t-0.5 -3.5v-481q0 -1 0.5 -3t2 -3t3 -1.5t3.5 -0.5h760q2 0 3.5 0.5t2.5 2l2 3t1 2.5v481q0 2 -0.5 3.5t-2 2.5t-3 1.5t-3.5 0.5v0zM318 341q0 -9 2.5 -16t7.5 -12t12 -7.5t16 -2.5 t16 2.5t12 7.5t7.5 12t2.5 16v239h73q8 0 15 2t12.5 6t8.5 10t3 14t-3 14t-8.5 10t-12.5 6t-15 2h-221q-9 0 -16 -2t-12.5 -6t-8.5 -10t-3 -14t3 -14t8.5 -10t12.5 -6t16 -2h72v-239v0zM813 594q2 3 2.5 6.5t1.5 6t1 5v5.5q0 9 -3.5 15.5t-9 10.5t-12 6t-14.5 2 q-6 0 -11.5 -2t-10 -6.5t-8 -10.5t-5.5 -15l-72 -228h-1l-69 228q-3 9 -6.5 15t-8 10.5t-10.5 6.5t-14 2q-7 0 -14 -2t-12.5 -6t-9 -10.5t-3.5 -15.5q0 -3 0.5 -5.5l1 -5t1.5 -6t2 -6.5l94 -265q3 -8 7.5 -13t10 -8t13 -4t16.5 -1t16 1t13 4t10.5 8t7.5 13l96 265v0z" />
<glyph unicode="&#xe651;" d="M633 448l128 128q12 12 18.5 28t6 32t-6 32t-19.5 28q-11 13 -27.5 19t-32.5 6t-32 -6t-27 -19l-129 -127l-127 127q-13 13 -28 19t-32 6t-32.5 -6t-28.5 -19q-12 -12 -18.5 -28t-6 -32.5t6 -32t19.5 -27.5l126 -128l-126 -128q-14 -12 -19.5 -28t-6 -32t6 -32t18.5 -28 q13 -13 28.5 -19t32 -6t32 6t28.5 19l127 127l129 -127q11 -13 27.5 -19t32 -6t32 6t27.5 19q14 12 19.5 28t6 32.5t-6 32t-18.5 27.5l-128 128v0z" />
<glyph unicode="&#xe652;" d="M939 811h-853q-14 0 -25 -5t-20.5 -14t-14 -20.5t-5.5 -24.5l1 -598q-1 -13 4.5 -24.5t14 -20.5t20.5 -14t24 -5h855q12 0 24 5t20.5 14t14 20.5t4.5 24.5l1 598q-1 13 -5.5 24.5t-14 20.5t-20.5 14t-25 5v0zM940 400l-126 124q-1 2 -4 4t-5.5 3t-6 1.5t-5.5 0.5 q-4 0 -7 -0.5t-6 -1.5t-5.5 -3t-5.5 -4l-307 -308q-5 -4 -10.5 -6.5t-12 -2.5t-12 2.5t-11.5 6.5l-120 121l-6 4.5t-5.5 3t-6 2t-6.5 0.5q-2 0 -5.5 -0.5t-6 -2t-5.5 -3t-4 -4.5l-166 -164l1 91l118 119q8 7 15.5 12t17 8.5t18 5.5t18.5 2q8 0 18 -2t18 -5.5t16.5 -8.5 t14.5 -12l100 -99l155 156q-14 12 -26.5 27t-20 32t-12.5 36t-5 40q-1 35 13.5 66.5t37 55t54.5 37t67 13.5q36 0 67 -13.5t55 -37t37 -55t14 -66.5q-1 -3 -0.5 -5.5t-0.5 -5t-0.5 -4.5t-0.5 -5l66 -65l-1 -90h1z" />
<glyph unicode="&#xe653;" d="M875 21q0 -13 -5 -24.5t-14 -20.5t-20.5 -14t-24.5 -5h-598q-13 0 -24.5 5t-20.5 14t-14 20.5t-5 24.5v854q0 13 5 24.5t14 20.5t20.5 14t24.5 5h401v-134q0 -14 2.5 -26.5t7.5 -24t11.5 -21.5t15.5 -19t19 -16t21.5 -11.5t24 -7t26.5 -2.5h133v-656v0zM696 759 q5 -4 10 -7.5t11 -6t12 -3.5t13 -1h133l-197 198v-134q0 -7 1 -13t3.5 -12t6 -11t7.5 -10v0z" />
<glyph unicode="&#xe654;" d="M962 802h-900q-13 0 -24 -5t-19.5 -13t-13.5 -19.5t-5 -24.5v-584q0 -13 5 -24.5t13.5 -19.5t19.5 -13t24 -5h900q13 0 24 5t19.5 13t13.5 19.5t5 24.5v584q0 13 -5 24.5t-13.5 19.5t-19.5 13t-24 5v0zM225 624q30 0 53 -9t38.5 -22.5t23.5 -29t8 -27.5q0 -8 -2 -14.5 t-6 -11t-10 -6.5t-13 -2q-15 0 -22.5 9.5t-15 20.5t-19 20.5t-35.5 9.5q-16 0 -30.5 -7.5t-25.5 -22t-17 -36t-6 -48.5q0 -23 4 -43.5t14 -36.5t25.5 -25t38.5 -9q20 0 31.5 10t19.5 22t15.5 22t19.5 10q6 0 12.5 -2t11 -5.5t7.5 -9t3 -12.5q0 -18 -9.5 -35.5t-25.5 -31 t-38 -22t-47 -8.5q-36 0 -64 11.5t-47.5 33.5t-30 55t-10.5 76q0 36 9.5 67.5t28.5 55.5t46.5 38.5t64.5 14.5v0zM401 571q0 13 3 21.5t8.5 13.5t13 7.5t16.5 2.5h106q22 0 41 -6t33 -19t22.5 -33t8.5 -48q0 -23 -7 -42.5t-20.5 -34t-33.5 -22.5t-45 -8h-77v-91q0 -8 -2 -15 t-7 -12t-11 -8t-14 -3t-14.5 3t-11 8t-7 12t-2.5 15v259v0zM470 462h65q10 0 19 3.5t15.5 9.5t10.5 15t4 20q0 12 -4 21t-11.5 15t-17.5 8.5t-23 2.5h-58v-95v0zM706 571q0 13 3 21.5t8.5 13.5t12.5 7.5t17 2.5h162q8 0 14.5 -1.5t11 -5t7 -9.5t2.5 -15t-2.5 -15t-7 -9.5 t-11 -5t-14.5 -1.5h-134v-72h118q6 0 12 -1.5t10.5 -4.5t7 -9t2.5 -15t-2.5 -14.5t-7 -9t-10.5 -4.5t-12 -1h-118v-81h138q7 0 13.5 -1.5t11 -5t7.5 -9.5t3 -15t-3 -15t-7.5 -9.5t-11 -5t-13.5 -1.5h-166q-10 0 -17 2.5t-12.5 7.5t-8.5 13.5t-3 21.5v246v0z" />
<glyph unicode="&#xe655;" d="M750 198v0h-1q-1 -1 -4.5 -3t-8.5 -5t-12.5 -6t-16.5 -7l-19.5 -6.5t-22.5 -6t-25 -3.5t-28 -1q-7 0 -15.5 0.5t-16.5 1.5t-17 2.5t-18 3.5v0q-10 3 -19 6.5t-17.5 8.5t-16 11t-15.5 13q-10 10 -19 21.5t-16.5 24.5t-14.5 27t-13 29h196q11 0 21 4.5t17 11.5t11 17t4 21 t-4 20.5t-11 17t-17 11.5t-21 4h-219q-1 4 -1 8.5t-0.5 8.5t-0.5 7.5v7.5v7.5t0.5 8t0.5 8.5t1 8h298q11 0 21 4t17 11.5t11.5 17t4.5 20.5t-4.5 21t-11.5 17t-17 11.5t-21 4.5h-274q1 4 2.5 8l3 8t3.5 8l4 8q5 10 10.5 19.5t12 18.5t13 17t13.5 15q8 7 15.5 13t16 11 t18 8.5t18.5 6.5v0q9 2 18 3.5t17 2.5t16.5 1.5t15.5 0.5q16 0 30.5 -1.5t27 -4.5t24 -6.5t20.5 -7.5q5 -2 9 -4t7.5 -3.5t6.5 -3t5 -3.5q1 0 2 -0.5l2 -1t1.5 -1t0.5 -1.5h2v0q9 -7 19 -9t20 -0.5t19 7t16 14.5q6 9 8.5 19t1 20.5t-7 19.5t-14.5 15q-1 1 -5 4t-11.5 7 t-17.5 9t-23 11q-13 5 -28.5 10t-33.5 9t-38 6.5t-43 2.5q-11 0 -22 -0.5t-23 -2t-24 -4t-24 -5.5v0q-18 -4 -33.5 -11t-30 -15t-27.5 -18t-24 -21q-17 -16 -31.5 -35t-26 -39t-21 -41t-16.5 -42q-1 -3 -1.5 -5.5t-1.5 -5.5t-1.5 -6t-1.5 -5h-60q-11 0 -20.5 -4.5t-17 -11.5 t-11.5 -17t-4 -21t4 -20.5t11.5 -17t17 -11.5t20.5 -4h41q-1 -4 -1 -8v-8t-0.5 -8t-0.5 -8t0.5 -8t0.5 -8v-8t1 -8h-41q-11 0 -20.5 -4t-17 -11.5t-11.5 -17t-4 -20.5t4 -21t11.5 -17t17 -11.5t20.5 -4.5h59q3 -10 6.5 -19.5t7 -19.5t7.5 -19.5t9 -19.5q7 -14 14.5 -27 t16.5 -26t19 -25t22 -23q11 -11 24 -21t27.5 -18t30 -15t33.5 -11v0q12 -3 24 -5.5t24 -4t23 -2t22 -0.5q23 0 43 2.5t38 6.5t33.5 9t28.5 10q13 6 23 11t17.5 9t11.5 7t5 4q9 6 14.5 15t7 19.5t-1 20.5t-8.5 19q-7 9 -16 14.5t-19 7t-20 -0.5t-19 -9v0z" />
<glyph unicode="&#xe656;" d="M174 694q0 13 4 23.5t11 17t17.5 10.5t22.5 3q12 1 22.5 -3t17.5 -10.5t11 -17t4 -23.5v-292l121 136q4 3 9 7.5t10 6.5t11 4.5t12 1.5q9 1 18.5 -3.5t17 -10.5t12 -16t4.5 -19q0 -8 -1.5 -12.5t-3.5 -9t-5 -7.5t-7 -8l-81 -84l114 -153q2 -1 4 -5t3.5 -8t3 -10t1.5 -12 q0 -11 -4 -20t-11 -17t-16.5 -12t-20.5 -5q-10 1 -18 3t-14 6t-10.5 8t-7.5 10l-103 145l-38 -33v-84q0 -13 -4 -23.5t-11 -17t-17.5 -10.5t-22.5 -3q-12 -1 -22.5 3t-17.5 10.5t-11 17t-4 23.5v493v0zM583 549q0 14 3.5 23t10.5 16t16 9.5t19 3.5q11 -1 20 -3.5t15.5 -9.5 t10.5 -16t4 -23v-41l1 -1q5 18 14.5 34.5t23.5 30t31.5 21t37.5 8.5q13 -1 24 -4.5t19 -11t12.5 -16.5t4.5 -22q0 -14 -5 -25t-12.5 -17t-17 -9.5t-19.5 -2.5l-20 -1q-16 1 -31.5 -12t-27 -35t-18.5 -52.5t-7 -63.5v-128q0 -10 -2.5 -20.5t-9 -17.5t-17 -12t-26.5 -4 q-16 -1 -26.5 4t-16.5 12t-8.5 17.5t-2.5 20.5v349v-1z" />
<glyph unicode="&#xe657;" d="M836 772q67 -67 101 -151.5t34 -172.5t-34 -172.5t-101 -151.5q-67 -68 -151.5 -101.5t-172.5 -33.5t-172.5 34t-151.5 101t-101 151.5t-34 172.5t33.5 172.5t101.5 151.5q67 67 151.5 101t172.5 34t172.5 -34t151.5 -101v0zM393 739l-52 -52l-45 45q-7 7 -16 10.5 t-18 3.5t-18 -3.5t-16 -10.5t-10.5 -16t-3.5 -18t3.5 -18t10.5 -16l45 -45l-52 -52q-4 -4 -6.5 -8t-3 -7.5t0.5 -7t4 -5.5l2 -2t2.5 -1.5l3 -1t2.5 -1.5l228 -53q7 -2 12 -0.5t9 5.5t5.5 9t0.5 12l-54 228q-1 1 -1.5 2.5l-1 3t-1.5 2.5l-2 2q-2 3 -5.5 4t-7 0.5t-7.5 -3 t-8 -6.5v0zM603 744l-2 -2t-1.5 -2.5l-1 -3t-1.5 -2.5l-54 -228q-1 -7 0.5 -12t5.5 -9t9 -5.5t12 0.5l228 53q1 1 2.5 1.5l3 1t2.5 1.5l2 2q2 2 3.5 5.5t1 7t-3 7.5t-6.5 8l-52 52l45 45q7 7 10.5 16t3.5 18t-3.5 18t-10.5 16t-16 10.5t-18 3.5t-18 -3.5t-16 -10.5l-45 -45 l-52 52q-4 4 -8 6.5t-7.5 3t-7 -0.5t-5.5 -4v0zM631 157l52 52l45 -45q7 -7 16 -10.5t18 -3.5t18 3.5t16 10.5t10.5 16t3.5 18t-3.5 18t-10.5 16l-45 45l52 52q4 4 6.5 8t3 7.5t-0.5 7t-4 5.5l-2 2t-2.5 1.5l-3 1t-2.5 1.5l-228 53q-7 2 -12 0.5t-9 -5.5t-5.5 -9t-0.5 -12 l54 -228q1 -1 1.5 -2.5l1 -3t1.5 -2.5l2 -2q2 -3 5.5 -4t7 -0.5t7.5 3t8 6.5v0zM421 152l2 2t1.5 2.5l1 3t1.5 2.5l54 228q1 7 -0.5 12t-5.5 9t-9 5.5t-12 -0.5l-228 -53q-1 -1 -2.5 -1.5l-3 -1t-2.5 -1.5l-2 -2q-3 -2 -4 -5.5t-0.5 -7t3 -7.5t6.5 -8l52 -52l-45 -45 q-7 -7 -10.5 -16t-3.5 -18t3.5 -18t10.5 -16t16 -10.5t18 -3.5t18 3.5t16 10.5l45 45l52 -53q4 -3 8 -5.5t7.5 -3t7 0.5t5.5 4v0z" />
<glyph unicode="&#xe658;" d="M64 171v0q-13 0 -25 5t-20.5 13.5t-13.5 20t-5 25.5v661q0 13 5 25t13.5 20.5t20.5 13.5t25 5h320q13 0 25 -5t20.5 -13.5t13.5 -20.5t5 -25v0h384q13 0 25 -5t20.5 -13.5t13.5 -20.5t5 -25v-107h-273q-8 15 -20 26.5t-26 20t-30.5 13t-34.5 4.5h-320q-27 0 -50 -10 t-40.5 -27.5t-27.5 -40.5t-10 -50v-490v0zM512 725h-320q-13 0 -25 -5t-20.5 -13.5t-13.5 -20t-5 -25.5v-661q0 -13 5 -25t13.5 -20.5t20.5 -13.5t25 -5h768q13 0 25 5t20.5 13.5t13.5 20.5t5 25v597q0 14 -5 25.5t-13.5 20t-20.5 13.5t-25 5h-384q0 14 -5 25.5t-13.5 20 t-20.5 13.5t-25 5v0zM224 491q-7 0 -12.5 2.5t-10 6.5t-7 10t-2.5 13q0 6 2.5 12t7 10.5t10 7t12.5 2.5h704q7 0 12.5 -2.5t10 -7t7 -10.5t2.5 -12q0 -7 -2.5 -13t-7 -10t-10 -6.5t-12.5 -2.5h-704v0z" />
<glyph unicode="&#xe659;" d="M739 781q5 -5 10 -8.5t11 -6t12 -3.5t12 -1h133l-197 198v-134q0 -7 1.5 -13t4 -11.5t6 -11t7.5 -9.5v0zM1024 466v-103q0 -9 -2 -18t-5 -18t-8 -17.5t-12 -15.5q-6 -8 -13.5 -14t-15.5 -11t-17 -8t-18 -4l-16 -3v-211q0 -14 -5 -25.5t-13.5 -20t-20 -13.5t-25.5 -5h-64 q-10 -7 -21 -13.5t-23 -11.5t-24.5 -8.5t-26.5 -5.5l-10 -2t-10.5 -1.5t-11 -0.5h-10.5q-19 0 -37 3t-34.5 8.5t-31 13.5t-27.5 18h-266q-13 0 -25 5t-20.5 13.5t-13.5 20t-5 25.5v153q-42 20 -77.5 50.5t-61 69.5t-39.5 84.5t-14 95.5t14 95.5t39.5 84.5t61 70t77.5 50v100 q0 13 5 25t13.5 20.5t20.5 13.5t25 5h400v-134q0 -13 3 -25.5t7.5 -24t11.5 -22t16 -19.5q8 -8 18.5 -15t22 -12t24 -7.5t25.5 -2.5h133v-137h3t2.5 0.5t3 0.5h2.5q9 0 17 -1.5t16 -4.5t15 -7t14 -10q8 -7 14.5 -15t10.5 -17.5t6.5 -20t2.5 -20.5v0zM928 498l-6 -1l-157 -28 q-6 -1 -11 -3.5t-8.5 -7t-5.5 -9.5t-2 -11v-234q-6 3 -13.5 5t-15 3.5t-16 2.5t-16.5 1q-4 0 -7.5 -0.5t-7.5 -0.5t-8 -0.5t-8 -1.5q-28 -5 -51.5 -17.5t-39.5 -30t-23.5 -39t-3.5 -42.5q3 -19 14 -34.5t28 -26.5t38 -17t44 -6h8t7.5 0.5t7.5 1t8 1.5q25 4 45.5 14t36.5 24 t25.5 31.5t11.5 35.5v14v177l120 21q4 0 7.5 1.5t7 3.5t6.5 4.5t6 5.5q2 3 4.5 6.5t3.5 7.5t2 7.5t1 6.5v103q0 3 -1 6.5t-2 6.5t-3.5 6t-4.5 5q-3 2 -5 3.5t-5 2.5t-5.5 1.5t-5.5 0.5v0zM332 764q-56 0 -104.5 -21.5t-85 -57.5t-57.5 -85t-21 -104t21 -104t57.5 -85 t85 -57.5t104.5 -21.5q55 0 103.5 21.5t85 57.5t57.5 85t21 104t-21 104t-57.5 85t-85 57.5t-103.5 21.5v0zM513 517l-264 159q-7 3 -12.5 3t-10 -3t-6.5 -8.5t-2 -13.5v-316q0 -8 2 -13.5t6.5 -8.5t10 -3t12.5 3l264 159q6 4 9.5 9.5t3.5 11.5t-3.5 11.5t-9.5 9.5v0z" />
<glyph unicode="&#xe65a;" d="M743 593q0 -29 -7 -56.5t-20 -52t-31.5 -45t-41.5 -35.5q99 -22 155 -57.5t84 -76.5t35 -82.5t9 -73.5q0 -7 -2 -14.5t-6.5 -13.5t-10 -11t-12.5 -7q-17 -4 -44.5 -9t-72 -9t-109.5 -7t-157 -3t-157 3t-109.5 7t-72 9t-44.5 9q-7 2 -12.5 7t-10 11t-6.5 13.5t-2 14.5 q2 32 9 73.5t35 82.5t84 76.5t155 57.5q-23 15 -41.5 36t-31.5 45t-20 51.5t-7 56.5q0 48 18.5 90t49.5 73.5t73 49.5t90 18t90 -18t73 -49.5t49.5 -73.5t18.5 -90v0z" />
<glyph unicode="&#xe65b;" d="M454 798q-53 0 -101 -17t-87 -46.5t-68 -70t-43 -88.5q-34 -14 -62.5 -37t-49 -53t-32 -65.5t-11.5 -74.5q0 -48 17.5 -91t48 -76t72 -54t89.5 -26h6t5.5 -0.5t5 -0.5h5.5h572h2h2h1.5h1.5q41 2 77 18t62.5 43.5t41.5 63.5t15 77q0 30 -8.5 57.5t-23.5 51t-36 42 t-46 31.5q-9 31 -26.5 58t-41.5 47.5t-53.5 34t-62.5 17.5q-20 36 -49 65.5t-64 50t-75.5 32t-83.5 11.5v0zM454 691q38 0 71.5 -12.5t60.5 -34.5t45 -52.5t25 -65.5q5 2 10 3.5t10.5 2.5l11 2t11.5 1q23 0 43.5 -9t35.5 -24t24 -35.5t9 -43.5v-7t-0.5 -7.5t-1.5 -7t-2 -7.5 q2 0 3.5 0.5t3.5 0.5h4h3q20 0 37.5 -7.5t30.5 -20.5t20.5 -30t7.5 -37q0 -19 -7 -36t-20 -30t-30 -20.5t-36 -8.5h-3h-459h-46h-36h-23h-8h-3.5h-2.5h-2.5t-3.5 1q-27 2 -51 13.5t-41.5 30.5t-27.5 43.5t-10 52.5q0 29 11 55t30.5 45t45 30t55.5 11q0 42 16 79.5t44 65 t65.5 43.5t79.5 16v0z" />
<glyph unicode="&#xe65c;" d="M667 381v-202q0 -20 -7.5 -37.5t-20.5 -30.5t-30.5 -20.5t-37.5 -7.5h-44q-6 0 -12 -2.5t-10.5 -6.5t-7 -10t-2.5 -13v-115l-151 139q-2 2 -4.5 3.5t-5.5 2.5t-6 1.5t-6 0.5h-226q-20 0 -37.5 7.5t-30.5 20.5t-20.5 30.5t-7.5 37.5v280q0 20 7.5 37.5t20.5 30.5 t30.5 20.5t37.5 7.5h200q5 -28 19.5 -52t35 -41.5t47 -27.5t55.5 -10h12v-155q0 -5 1 -9.5t3.5 -8.5t6 -7t8.5 -5q1 0 2.5 -0.5t3.5 -1t3.5 -0.5h3.5q3 0 5.5 0.5t5.5 1.5t5.5 2.5t4.5 3.5l149 136v0zM453 960q-20 0 -37.5 -7.5t-30.5 -20.5t-20.5 -30.5t-7.5 -37.5v-280 q0 -19 7.5 -36.5t20.5 -30.5t30.5 -21t37.5 -8h44q6 0 12 -2.5t10.5 -6.5t7 -10t2.5 -13v-115l151 139q2 2 4.5 3.5t5.5 2.5t6 1.5t6 0.5h226q20 0 37.5 7.5t30.5 21t20.5 31t7.5 36.5v280q0 20 -7.5 37.5t-20.5 30.5t-30.5 20.5t-37.5 7.5h-475v0z" />
<glyph unicode="&#xe65d;" d="M512 597q-19 0 -36.5 -3.5t-34 -10.5t-31 -16.5t-26.5 -22.5q-13 -12 -22.5 -26.5t-16.5 -31t-10.5 -34t-3.5 -36.5t3.5 -36.5t10.5 -34t16.5 -31t22.5 -26.5q12 -13 26.5 -22.5t31 -16.5t34 -10.5t36.5 -3.5t36.5 3.5t34 10.5t31 16.5t26.5 22.5q13 12 22.5 26.5 t16.5 31t10.5 34t3.5 36.5t-3.5 36.5t-10.5 34t-16.5 31t-22.5 26.5q-12 13 -26.5 22.5t-31 16.5t-34 10.5t-36.5 3.5v0zM928 779h-192q0 13 -5 24.5t-13.5 20.5t-20.5 14t-25 5h-320q-13 0 -25 -5t-20.5 -14t-13.5 -20.5t-5 -24.5v0h-192q-13 0 -25 -5t-20.5 -14 t-13.5 -20.5t-5 -24.5v-598q0 -13 5 -24.5t13.5 -20.5t20.5 -14t25 -5h832q13 0 25 5t20.5 14t13.5 20.5t5 24.5v598q0 13 -5 24.5t-13.5 20.5t-20.5 14t-25 5v0zM512 171q-51 0 -95.5 19t-78 52.5t-52.5 78t-19 95.5t19 95.5t52.5 78t78 52.5t95.5 19t95.5 -19t78 -52.5 t52.5 -78t19 -95.5t-19 -95.5t-52.5 -78t-78 -52.5t-95.5 -19v0zM859 576q-15 0 -27.5 5.5t-22 15t-15 22t-5.5 26.5q0 15 5.5 27.5t15 22t22 15t27.5 5.5q14 0 26.5 -5.5t22 -15t15 -22t5.5 -27.5q0 -14 -5.5 -26.5t-15 -22t-22 -15t-26.5 -5.5v0z" />
</font>
</defs>
</svg>
